<svg width="1080" height="381" viewBox="0 0 1080 381" fill="none" xmlns="http://www.w3.org/2000/svg">
<g filter="url(#filter0_d_947_1086)">
<path d="M190 0H522.877L540 37.5L522.877 75H190L207.143 37.5L190 0Z" fill="white"/>
<path d="M273.104 44.16L272.204 43.26H276.384V45H267.444V43.26H271.984L271.104 44.16V31.8L271.964 32.74H267.664V31H273.104V44.16ZM280.848 45.12C280.474 45.12 280.154 44.9933 279.888 44.74C279.621 44.4733 279.488 44.14 279.488 43.74C279.488 43.34 279.621 43.0133 279.888 42.76C280.154 42.5067 280.474 42.38 280.848 42.38C281.208 42.38 281.514 42.5067 281.768 42.76C282.034 43.0133 282.168 43.34 282.168 43.74C282.168 44.14 282.034 44.4733 281.768 44.74C281.514 44.9933 281.208 45.12 280.848 45.12ZM293.666 37.62H300.886V39.34H293.666V37.62ZM293.866 45H291.866V31H301.746V32.74H293.866V45ZM304.086 45V34.4H305.926V37.28L305.746 36.56C306.039 35.8267 306.532 35.2667 307.226 34.88C307.919 34.4933 308.772 34.3 309.786 34.3V36.16C309.706 36.1467 309.626 36.14 309.546 36.14C309.479 36.14 309.412 36.14 309.346 36.14C308.319 36.14 307.506 36.4467 306.906 37.06C306.306 37.6733 306.006 38.56 306.006 39.72V45H304.086ZM316.774 45.12C315.641 45.12 314.641 44.8867 313.774 44.42C312.921 43.9533 312.254 43.3133 311.774 42.5C311.308 41.6867 311.074 40.7533 311.074 39.7C311.074 38.6467 311.301 37.7133 311.754 36.9C312.221 36.0867 312.854 35.4533 313.654 35C314.468 34.5333 315.381 34.3 316.394 34.3C317.421 34.3 318.328 34.5267 319.114 34.98C319.901 35.4333 320.514 36.0733 320.954 36.9C321.408 37.7133 321.634 38.6667 321.634 39.76C321.634 39.84 321.628 39.9333 321.614 40.04C321.614 40.1467 321.608 40.2467 321.594 40.34H312.574V38.96H320.594L319.814 39.44C319.828 38.76 319.688 38.1533 319.394 37.62C319.101 37.0867 318.694 36.6733 318.174 36.38C317.668 36.0733 317.074 35.92 316.394 35.92C315.728 35.92 315.134 36.0733 314.614 36.38C314.094 36.6733 313.688 37.0933 313.394 37.64C313.101 38.1733 312.954 38.7867 312.954 39.48V39.8C312.954 40.5067 313.114 41.14 313.434 41.7C313.768 42.2467 314.228 42.6733 314.814 42.98C315.401 43.2867 316.074 43.44 316.834 43.44C317.461 43.44 318.028 43.3333 318.534 43.12C319.054 42.9067 319.508 42.5867 319.894 42.16L320.954 43.4C320.474 43.96 319.874 44.3867 319.154 44.68C318.448 44.9733 317.654 45.12 316.774 45.12ZM329.02 45.12C327.887 45.12 326.887 44.8867 326.02 44.42C325.167 43.9533 324.5 43.3133 324.02 42.5C323.554 41.6867 323.32 40.7533 323.32 39.7C323.32 38.6467 323.547 37.7133 324 36.9C324.467 36.0867 325.1 35.4533 325.9 35C326.714 34.5333 327.627 34.3 328.64 34.3C329.667 34.3 330.574 34.5267 331.36 34.98C332.147 35.4333 332.76 36.0733 333.2 36.9C333.654 37.7133 333.88 38.6667 333.88 39.76C333.88 39.84 333.874 39.9333 333.86 40.04C333.86 40.1467 333.854 40.2467 333.84 40.34H324.82V38.96H332.84L332.06 39.44C332.074 38.76 331.934 38.1533 331.64 37.62C331.347 37.0867 330.94 36.6733 330.42 36.38C329.914 36.0733 329.32 35.92 328.64 35.92C327.974 35.92 327.38 36.0733 326.86 36.38C326.34 36.6733 325.934 37.0933 325.64 37.64C325.347 38.1733 325.2 38.7867 325.2 39.48V39.8C325.2 40.5067 325.36 41.14 325.68 41.7C326.014 42.2467 326.474 42.6733 327.06 42.98C327.647 43.2867 328.32 43.44 329.08 43.44C329.707 43.44 330.274 43.3333 330.78 43.12C331.3 42.9067 331.754 42.5867 332.14 42.16L333.2 43.4C332.72 43.96 332.12 44.3867 331.4 44.68C330.694 44.9733 329.9 45.12 329.02 45.12ZM348.458 45.16C347.391 45.16 346.404 44.9867 345.498 44.64C344.604 44.28 343.824 43.78 343.158 43.14C342.504 42.4867 341.991 41.7267 341.618 40.86C341.244 39.9933 341.058 39.04 341.058 38C341.058 36.96 341.244 36.0067 341.618 35.14C341.991 34.2733 342.511 33.52 343.178 32.88C343.844 32.2267 344.624 31.7267 345.518 31.38C346.424 31.02 347.411 30.84 348.478 30.84C349.558 30.84 350.551 31.0267 351.458 31.4C352.378 31.76 353.158 32.3 353.798 33.02L352.498 34.28C351.964 33.72 351.364 33.3067 350.698 33.04C350.031 32.76 349.318 32.62 348.558 32.62C347.771 32.62 347.038 32.7533 346.358 33.02C345.691 33.2867 345.111 33.66 344.618 34.14C344.124 34.62 343.738 35.1933 343.458 35.86C343.191 36.5133 343.058 37.2267 343.058 38C343.058 38.7733 343.191 39.4933 343.458 40.16C343.738 40.8133 344.124 41.38 344.618 41.86C345.111 42.34 345.691 42.7133 346.358 42.98C347.038 43.2467 347.771 43.38 348.558 43.38C349.318 43.38 350.031 43.2467 350.698 42.98C351.364 42.7 351.964 42.2733 352.498 41.7L353.798 42.96C353.158 43.68 352.378 44.2267 351.458 44.6C350.551 44.9733 349.551 45.16 348.458 45.16ZM360.462 45.12C359.395 45.12 358.448 44.8867 357.622 44.42C356.795 43.9533 356.142 43.3133 355.662 42.5C355.182 41.6733 354.942 40.74 354.942 39.7C354.942 38.6467 355.182 37.7133 355.662 36.9C356.142 36.0867 356.795 35.4533 357.622 35C358.448 34.5333 359.395 34.3 360.462 34.3C361.515 34.3 362.455 34.5333 363.282 35C364.122 35.4533 364.775 36.0867 365.242 36.9C365.722 37.7 365.962 38.6333 365.962 39.7C365.962 40.7533 365.722 41.6867 365.242 42.5C364.775 43.3133 364.122 43.9533 363.282 44.42C362.455 44.8867 361.515 45.12 360.462 45.12ZM360.462 43.44C361.142 43.44 361.748 43.2867 362.282 42.98C362.828 42.6733 363.255 42.24 363.562 41.68C363.868 41.1067 364.022 40.4467 364.022 39.7C364.022 38.94 363.868 38.2867 363.562 37.74C363.255 37.18 362.828 36.7467 362.282 36.44C361.748 36.1333 361.142 35.98 360.462 35.98C359.782 35.98 359.175 36.1333 358.642 36.44C358.108 36.7467 357.682 37.18 357.362 37.74C357.042 38.2867 356.882 38.94 356.882 39.7C356.882 40.4467 357.042 41.1067 357.362 41.68C357.682 42.24 358.108 42.6733 358.642 42.98C359.175 43.2867 359.782 43.44 360.462 43.44ZM374.277 34.3C375.144 34.3 375.904 34.4667 376.557 34.8C377.224 35.1333 377.744 35.64 378.117 36.32C378.49 37 378.677 37.86 378.677 38.9V45H376.757V39.12C376.757 38.0933 376.504 37.32 375.997 36.8C375.504 36.28 374.804 36.02 373.897 36.02C373.217 36.02 372.624 36.1533 372.117 36.42C371.61 36.6867 371.217 37.08 370.937 37.6C370.67 38.12 370.537 38.7667 370.537 39.54V45H368.617V34.4H370.457V37.26L370.157 36.5C370.504 35.8067 371.037 35.2667 371.757 34.88C372.477 34.4933 373.317 34.3 374.277 34.3ZM385.27 45.12C384.39 45.12 383.55 45 382.75 44.76C381.963 44.52 381.343 44.2267 380.89 43.88L381.69 42.36C382.143 42.6667 382.703 42.9267 383.37 43.14C384.037 43.3533 384.717 43.46 385.41 43.46C386.303 43.46 386.943 43.3333 387.33 43.08C387.73 42.8267 387.93 42.4733 387.93 42.02C387.93 41.6867 387.81 41.4267 387.57 41.24C387.33 41.0533 387.01 40.9133 386.61 40.82C386.223 40.7267 385.79 40.6467 385.31 40.58C384.83 40.5 384.35 40.4067 383.87 40.3C383.39 40.18 382.95 40.02 382.55 39.82C382.15 39.6067 381.83 39.32 381.59 38.96C381.35 38.5867 381.23 38.0933 381.23 37.48C381.23 36.84 381.41 36.28 381.77 35.8C382.13 35.32 382.637 34.9533 383.29 34.7C383.957 34.4333 384.743 34.3 385.65 34.3C386.343 34.3 387.043 34.3867 387.75 34.56C388.47 34.72 389.057 34.9533 389.51 35.26L388.69 36.78C388.21 36.46 387.71 36.24 387.19 36.12C386.67 36 386.15 35.94 385.63 35.94C384.79 35.94 384.163 36.08 383.75 36.36C383.337 36.6267 383.13 36.9733 383.13 37.4C383.13 37.76 383.25 38.04 383.49 38.24C383.743 38.4267 384.063 38.5733 384.45 38.68C384.85 38.7867 385.29 38.88 385.77 38.96C386.25 39.0267 386.73 39.12 387.21 39.24C387.69 39.3467 388.123 39.5 388.51 39.7C388.91 39.9 389.23 40.18 389.47 40.54C389.723 40.9 389.85 41.38 389.85 41.98C389.85 42.62 389.663 43.1733 389.29 43.64C388.917 44.1067 388.39 44.4733 387.71 44.74C387.03 44.9933 386.217 45.12 385.27 45.12ZM396.71 45.12C395.803 45.12 395.003 44.9533 394.31 44.62C393.63 44.2867 393.096 43.78 392.71 43.1C392.336 42.4067 392.15 41.54 392.15 40.5V34.4H394.07V40.28C394.07 41.32 394.316 42.1 394.81 42.62C395.316 43.14 396.023 43.4 396.93 43.4C397.596 43.4 398.176 43.2667 398.67 43C399.163 42.72 399.543 42.32 399.81 41.8C400.076 41.2667 400.21 40.6267 400.21 39.88V34.4H402.13V45H400.31V42.14L400.61 42.9C400.263 43.6067 399.743 44.1533 399.05 44.54C398.356 44.9267 397.576 45.12 396.71 45.12ZM405.785 45V30.16H407.705V45H405.785ZM415.284 45.12C414.218 45.12 413.391 44.8333 412.804 44.26C412.218 43.6867 411.924 42.8667 411.924 41.8V32.08H413.844V41.72C413.844 42.2933 413.984 42.7333 414.264 43.04C414.558 43.3467 414.971 43.5 415.504 43.5C416.104 43.5 416.604 43.3333 417.004 43L417.604 44.38C417.311 44.6333 416.958 44.82 416.544 44.94C416.144 45.06 415.724 45.12 415.284 45.12ZM410.124 35.98V34.4H416.884V35.98H410.124ZM426.505 45V42.76L426.405 42.34V38.52C426.405 37.7067 426.165 37.08 425.685 36.64C425.219 36.1867 424.512 35.96 423.565 35.96C422.939 35.96 422.325 36.0667 421.725 36.28C421.125 36.48 420.619 36.7533 420.205 37.1L419.405 35.66C419.952 35.22 420.605 34.8867 421.365 34.66C422.139 34.42 422.945 34.3 423.785 34.3C425.239 34.3 426.359 34.6533 427.145 35.36C427.932 36.0667 428.325 37.1467 428.325 38.6V45H426.505ZM423.025 45.12C422.239 45.12 421.545 44.9867 420.945 44.72C420.359 44.4533 419.905 44.0867 419.585 43.62C419.265 43.14 419.105 42.6 419.105 42C419.105 41.4267 419.239 40.9067 419.505 40.44C419.785 39.9733 420.232 39.6 420.845 39.32C421.472 39.04 422.312 38.9 423.365 38.9H426.725V40.28H423.445C422.485 40.28 421.839 40.44 421.505 40.76C421.172 41.08 421.005 41.4667 421.005 41.92C421.005 42.44 421.212 42.86 421.625 43.18C422.039 43.4867 422.612 43.64 423.345 43.64C424.065 43.64 424.692 43.48 425.225 43.16C425.772 42.84 426.165 42.3733 426.405 41.76L426.785 43.08C426.532 43.7067 426.085 44.2067 425.445 44.58C424.805 44.94 423.999 45.12 423.025 45.12ZM435.519 45.12C434.452 45.12 433.625 44.8333 433.039 44.26C432.452 43.6867 432.159 42.8667 432.159 41.8V32.08H434.079V41.72C434.079 42.2933 434.219 42.7333 434.499 43.04C434.792 43.3467 435.205 43.5 435.739 43.5C436.339 43.5 436.839 43.3333 437.239 43L437.839 44.38C437.545 44.6333 437.192 44.82 436.779 44.94C436.379 45.06 435.959 45.12 435.519 45.12ZM430.359 35.98V34.4H437.119V35.98H430.359ZM440.16 45V34.4H442.08V45H440.16ZM441.12 32.36C440.747 32.36 440.433 32.24 440.18 32C439.94 31.76 439.82 31.4667 439.82 31.12C439.82 30.76 439.94 30.46 440.18 30.22C440.433 29.98 440.747 29.86 441.12 29.86C441.493 29.86 441.8 29.98 442.04 30.22C442.293 30.4467 442.42 30.7333 442.42 31.08C442.42 31.44 442.3 31.7467 442.06 32C441.82 32.24 441.507 32.36 441.12 32.36ZM450.286 45.12C449.219 45.12 448.272 44.8867 447.446 44.42C446.619 43.9533 445.966 43.3133 445.486 42.5C445.006 41.6733 444.766 40.74 444.766 39.7C444.766 38.6467 445.006 37.7133 445.486 36.9C445.966 36.0867 446.619 35.4533 447.446 35C448.272 34.5333 449.219 34.3 450.286 34.3C451.339 34.3 452.279 34.5333 453.106 35C453.946 35.4533 454.599 36.0867 455.066 36.9C455.546 37.7 455.786 38.6333 455.786 39.7C455.786 40.7533 455.546 41.6867 455.066 42.5C454.599 43.3133 453.946 43.9533 453.106 44.42C452.279 44.8867 451.339 45.12 450.286 45.12ZM450.286 43.44C450.966 43.44 451.572 43.2867 452.106 42.98C452.652 42.6733 453.079 42.24 453.386 41.68C453.692 41.1067 453.846 40.4467 453.846 39.7C453.846 38.94 453.692 38.2867 453.386 37.74C453.079 37.18 452.652 36.7467 452.106 36.44C451.572 36.1333 450.966 35.98 450.286 35.98C449.606 35.98 448.999 36.1333 448.466 36.44C447.932 36.7467 447.506 37.18 447.186 37.74C446.866 38.2867 446.706 38.94 446.706 39.7C446.706 40.4467 446.866 41.1067 447.186 41.68C447.506 42.24 447.932 42.6733 448.466 42.98C448.999 43.2867 449.606 43.44 450.286 43.44ZM464.101 34.3C464.968 34.3 465.728 34.4667 466.381 34.8C467.048 35.1333 467.568 35.64 467.941 36.32C468.314 37 468.501 37.86 468.501 38.9V45H466.581V39.12C466.581 38.0933 466.328 37.32 465.821 36.8C465.328 36.28 464.628 36.02 463.721 36.02C463.041 36.02 462.448 36.1533 461.941 36.42C461.434 36.6867 461.041 37.08 460.761 37.6C460.494 38.12 460.361 38.7667 460.361 39.54V45H458.441V34.4H460.281V37.26L459.981 36.5C460.328 35.8067 460.861 35.2667 461.581 34.88C462.301 34.4933 463.141 34.3 464.101 34.3Z" fill="black"/>
</g>
<g filter="url(#filter1_d_947_1086)">
<path d="M540 0H872.877L890 37.5L872.877 75H540L557.143 37.5L540 0Z" fill="white"/>
<path d="M620.494 45V43.64L626.394 38.14C626.914 37.66 627.3 37.24 627.554 36.88C627.82 36.5067 628 36.1667 628.094 35.86C628.187 35.54 628.234 35.2333 628.234 34.94C628.234 34.46 628.114 34.0533 627.874 33.72C627.634 33.3733 627.28 33.1067 626.814 32.92C626.347 32.72 625.76 32.62 625.054 32.62C624.267 32.62 623.554 32.74 622.914 32.98C622.287 33.22 621.747 33.6 621.294 34.12L619.934 32.96C620.507 32.28 621.254 31.76 622.174 31.4C623.094 31.0267 624.107 30.84 625.214 30.84C626.267 30.84 627.167 31 627.914 31.32C628.66 31.64 629.234 32.0933 629.634 32.68C630.034 33.2667 630.234 33.9533 630.234 34.74C630.234 35.1933 630.167 35.64 630.034 36.08C629.914 36.5067 629.68 36.9733 629.334 37.48C628.987 37.9733 628.48 38.5267 627.814 39.14L622.574 44.04L622.314 43.26H630.834V45H620.494ZM635.018 45.12C634.644 45.12 634.324 44.9933 634.058 44.74C633.791 44.4733 633.658 44.14 633.658 43.74C633.658 43.34 633.791 43.0133 634.058 42.76C634.324 42.5067 634.644 42.38 635.018 42.38C635.378 42.38 635.684 42.5067 635.938 42.76C636.204 43.0133 636.338 43.34 636.338 43.74C636.338 44.14 636.204 44.4733 635.938 44.74C635.684 44.9933 635.378 45.12 635.018 45.12ZM652.296 45.16C651.229 45.16 650.242 44.9867 649.336 44.64C648.442 44.28 647.662 43.78 646.996 43.14C646.342 42.4867 645.829 41.7267 645.456 40.86C645.082 39.9933 644.896 39.04 644.896 38C644.896 36.96 645.082 36.0067 645.456 35.14C645.829 34.2733 646.349 33.52 647.016 32.88C647.682 32.2267 648.462 31.7267 649.356 31.38C650.262 31.02 651.249 30.84 652.316 30.84C653.396 30.84 654.389 31.0267 655.296 31.4C656.216 31.76 656.996 32.3 657.636 33.02L656.336 34.28C655.802 33.72 655.202 33.3067 654.536 33.04C653.869 32.76 653.156 32.62 652.396 32.62C651.609 32.62 650.876 32.7533 650.196 33.02C649.529 33.2867 648.949 33.66 648.456 34.14C647.962 34.62 647.576 35.1933 647.296 35.86C647.029 36.5133 646.896 37.2267 646.896 38C646.896 38.7733 647.029 39.4933 647.296 40.16C647.576 40.8133 647.962 41.38 648.456 41.86C648.949 42.34 649.529 42.7133 650.196 42.98C650.876 43.2467 651.609 43.38 652.396 43.38C653.156 43.38 653.869 43.2467 654.536 42.98C655.202 42.7 655.802 42.2733 656.336 41.7L657.636 42.96C656.996 43.68 656.216 44.2267 655.296 44.6C654.389 44.9733 653.389 45.16 652.296 45.16ZM664.337 45.12C663.43 45.12 662.63 44.9533 661.937 44.62C661.257 44.2867 660.723 43.78 660.337 43.1C659.963 42.4067 659.777 41.54 659.777 40.5V34.4H661.697V40.28C661.697 41.32 661.943 42.1 662.437 42.62C662.943 43.14 663.65 43.4 664.557 43.4C665.223 43.4 665.803 43.2667 666.297 43C666.79 42.72 667.17 42.32 667.437 41.8C667.703 41.2667 667.837 40.6267 667.837 39.88V34.4H669.757V45H667.937V42.14L668.237 42.9C667.89 43.6067 667.37 44.1533 666.677 44.54C665.983 44.9267 665.203 45.12 664.337 45.12ZM676.452 45.12C675.572 45.12 674.732 45 673.932 44.76C673.145 44.52 672.525 44.2267 672.072 43.88L672.872 42.36C673.325 42.6667 673.885 42.9267 674.552 43.14C675.218 43.3533 675.898 43.46 676.592 43.46C677.485 43.46 678.125 43.3333 678.512 43.08C678.912 42.8267 679.112 42.4733 679.112 42.02C679.112 41.6867 678.992 41.4267 678.752 41.24C678.512 41.0533 678.192 40.9133 677.792 40.82C677.405 40.7267 676.972 40.6467 676.492 40.58C676.012 40.5 675.532 40.4067 675.052 40.3C674.572 40.18 674.132 40.02 673.732 39.82C673.332 39.6067 673.012 39.32 672.772 38.96C672.532 38.5867 672.412 38.0933 672.412 37.48C672.412 36.84 672.592 36.28 672.952 35.8C673.312 35.32 673.818 34.9533 674.472 34.7C675.138 34.4333 675.925 34.3 676.832 34.3C677.525 34.3 678.225 34.3867 678.932 34.56C679.652 34.72 680.238 34.9533 680.692 35.26L679.872 36.78C679.392 36.46 678.892 36.24 678.372 36.12C677.852 36 677.332 35.94 676.812 35.94C675.972 35.94 675.345 36.08 674.932 36.36C674.518 36.6267 674.312 36.9733 674.312 37.4C674.312 37.76 674.432 38.04 674.672 38.24C674.925 38.4267 675.245 38.5733 675.632 38.68C676.032 38.7867 676.472 38.88 676.952 38.96C677.432 39.0267 677.912 39.12 678.392 39.24C678.872 39.3467 679.305 39.5 679.692 39.7C680.092 39.9 680.412 40.18 680.652 40.54C680.905 40.9 681.032 41.38 681.032 41.98C681.032 42.62 680.845 43.1733 680.472 43.64C680.098 44.1067 679.572 44.4733 678.892 44.74C678.212 44.9933 677.398 45.12 676.452 45.12ZM687.071 45.12C686.005 45.12 685.178 44.8333 684.591 44.26C684.005 43.6867 683.711 42.8667 683.711 41.8V32.08H685.631V41.72C685.631 42.2933 685.771 42.7333 686.051 43.04C686.345 43.3467 686.758 43.5 687.291 43.5C687.891 43.5 688.391 43.3333 688.791 43L689.391 44.38C689.098 44.6333 688.745 44.82 688.331 44.94C687.931 45.06 687.511 45.12 687.071 45.12ZM681.911 35.98V34.4H688.671V35.98H681.911ZM695.901 45.12C694.834 45.12 693.888 44.8867 693.061 44.42C692.234 43.9533 691.581 43.3133 691.101 42.5C690.621 41.6733 690.381 40.74 690.381 39.7C690.381 38.6467 690.621 37.7133 691.101 36.9C691.581 36.0867 692.234 35.4533 693.061 35C693.888 34.5333 694.834 34.3 695.901 34.3C696.954 34.3 697.894 34.5333 698.721 35C699.561 35.4533 700.214 36.0867 700.681 36.9C701.161 37.7 701.401 38.6333 701.401 39.7C701.401 40.7533 701.161 41.6867 700.681 42.5C700.214 43.3133 699.561 43.9533 698.721 44.42C697.894 44.8867 696.954 45.12 695.901 45.12ZM695.901 43.44C696.581 43.44 697.188 43.2867 697.721 42.98C698.268 42.6733 698.694 42.24 699.001 41.68C699.308 41.1067 699.461 40.4467 699.461 39.7C699.461 38.94 699.308 38.2867 699.001 37.74C698.694 37.18 698.268 36.7467 697.721 36.44C697.188 36.1333 696.581 35.98 695.901 35.98C695.221 35.98 694.614 36.1333 694.081 36.44C693.548 36.7467 693.121 37.18 692.801 37.74C692.481 38.2867 692.321 38.94 692.321 39.7C692.321 40.4467 692.481 41.1067 692.801 41.68C693.121 42.24 693.548 42.6733 694.081 42.98C694.614 43.2867 695.221 43.44 695.901 43.44ZM717.316 34.3C718.17 34.3 718.923 34.4667 719.576 34.8C720.23 35.1333 720.736 35.64 721.096 36.32C721.47 37 721.656 37.86 721.656 38.9V45H719.736V39.12C719.736 38.0933 719.496 37.32 719.016 36.8C718.536 36.28 717.863 36.02 716.996 36.02C716.356 36.02 715.796 36.1533 715.316 36.42C714.836 36.6867 714.463 37.08 714.196 37.6C713.943 38.12 713.816 38.7667 713.816 39.54V45H711.896V39.12C711.896 38.0933 711.656 37.32 711.176 36.8C710.71 36.28 710.036 36.02 709.156 36.02C708.53 36.02 707.976 36.1533 707.496 36.42C707.016 36.6867 706.643 37.08 706.376 37.6C706.11 38.12 705.976 38.7667 705.976 39.54V45H704.056V34.4H705.896V37.22L705.596 36.5C705.93 35.8067 706.443 35.2667 707.136 34.88C707.83 34.4933 708.636 34.3 709.556 34.3C710.57 34.3 711.443 34.5533 712.176 35.06C712.91 35.5533 713.39 36.3067 713.616 37.32L712.836 37C713.156 36.1867 713.716 35.5333 714.516 35.04C715.316 34.5467 716.25 34.3 717.316 34.3ZM725.189 45V34.4H727.109V45H725.189ZM726.149 32.36C725.776 32.36 725.462 32.24 725.209 32C724.969 31.76 724.849 31.4667 724.849 31.12C724.849 30.76 724.969 30.46 725.209 30.22C725.462 29.98 725.776 29.86 726.149 29.86C726.522 29.86 726.829 29.98 727.069 30.22C727.322 30.4467 727.449 30.7333 727.449 31.08C727.449 31.44 727.329 31.7467 727.089 32C726.849 32.24 726.536 32.36 726.149 32.36ZM729.755 45V43.76L736.555 35.32L736.935 35.98H729.875V34.4H738.475V35.66L731.675 44.08L731.235 43.42H738.635V45H729.755ZM745.769 45.12C744.635 45.12 743.635 44.8867 742.769 44.42C741.915 43.9533 741.249 43.3133 740.769 42.5C740.302 41.6867 740.069 40.7533 740.069 39.7C740.069 38.6467 740.295 37.7133 740.749 36.9C741.215 36.0867 741.849 35.4533 742.649 35C743.462 34.5333 744.375 34.3 745.389 34.3C746.415 34.3 747.322 34.5267 748.109 34.98C748.895 35.4333 749.509 36.0733 749.949 36.9C750.402 37.7133 750.629 38.6667 750.629 39.76C750.629 39.84 750.622 39.9333 750.609 40.04C750.609 40.1467 750.602 40.2467 750.589 40.34H741.569V38.96H749.589L748.809 39.44C748.822 38.76 748.682 38.1533 748.389 37.62C748.095 37.0867 747.689 36.6733 747.169 36.38C746.662 36.0733 746.069 35.92 745.389 35.92C744.722 35.92 744.129 36.0733 743.609 36.38C743.089 36.6733 742.682 37.0933 742.389 37.64C742.095 38.1733 741.949 38.7867 741.949 39.48V39.8C741.949 40.5067 742.109 41.14 742.429 41.7C742.762 42.2467 743.222 42.6733 743.809 42.98C744.395 43.2867 745.069 43.44 745.829 43.44C746.455 43.44 747.022 43.3333 747.529 43.12C748.049 42.9067 748.502 42.5867 748.889 42.16L749.949 43.4C749.469 43.96 748.869 44.3867 748.149 44.68C747.442 44.9733 746.649 45.12 745.769 45.12ZM757.675 45.12C756.648 45.12 755.728 44.8933 754.915 44.44C754.115 43.9867 753.481 43.3533 753.015 42.54C752.548 41.7267 752.315 40.78 752.315 39.7C752.315 38.62 752.548 37.68 753.015 36.88C753.481 36.0667 754.115 35.4333 754.915 34.98C755.728 34.5267 756.648 34.3 757.675 34.3C758.568 34.3 759.375 34.5 760.095 34.9C760.815 35.3 761.388 35.9 761.815 36.7C762.255 37.5 762.475 38.5 762.475 39.7C762.475 40.9 762.261 41.9 761.835 42.7C761.421 43.5 760.855 44.1067 760.135 44.52C759.415 44.92 758.595 45.12 757.675 45.12ZM757.835 43.44C758.501 43.44 759.101 43.2867 759.635 42.98C760.181 42.6733 760.608 42.24 760.915 41.68C761.235 41.1067 761.395 40.4467 761.395 39.7C761.395 38.94 761.235 38.2867 760.915 37.74C760.608 37.18 760.181 36.7467 759.635 36.44C759.101 36.1333 758.501 35.98 757.835 35.98C757.155 35.98 756.548 36.1333 756.015 36.44C755.481 36.7467 755.055 37.18 754.735 37.74C754.415 38.2867 754.255 38.94 754.255 39.7C754.255 40.4467 754.415 41.1067 754.735 41.68C755.055 42.24 755.481 42.6733 756.015 42.98C756.548 43.2867 757.155 43.44 757.835 43.44ZM761.455 45V42.14L761.575 39.68L761.375 37.22V30.16H763.295V45H761.455ZM772.579 45V31H778.039C779.265 31 780.312 31.1933 781.179 31.58C782.045 31.9667 782.712 32.5267 783.179 33.26C783.645 33.9933 783.879 34.8667 783.879 35.88C783.879 36.8933 783.645 37.7667 783.179 38.5C782.712 39.22 782.045 39.78 781.179 40.18C780.312 40.5667 779.265 40.76 778.039 40.76H773.679L774.579 39.82V45H772.579ZM774.579 40.02L773.679 39.02H777.979C779.259 39.02 780.225 38.7467 780.879 38.2C781.545 37.6533 781.879 36.88 781.879 35.88C781.879 34.88 781.545 34.1067 780.879 33.56C780.225 33.0133 779.259 32.74 777.979 32.74H773.679L774.579 31.74V40.02ZM786.732 45V30.16H788.652V45H786.732ZM798.898 45V42.76L798.798 42.34V38.52C798.798 37.7067 798.558 37.08 798.078 36.64C797.611 36.1867 796.905 35.96 795.958 35.96C795.331 35.96 794.718 36.0667 794.118 36.28C793.518 36.48 793.011 36.7533 792.598 37.1L791.798 35.66C792.345 35.22 792.998 34.8867 793.758 34.66C794.531 34.42 795.338 34.3 796.178 34.3C797.631 34.3 798.751 34.6533 799.538 35.36C800.325 36.0667 800.718 37.1467 800.718 38.6V45H798.898ZM795.418 45.12C794.631 45.12 793.938 44.9867 793.338 44.72C792.751 44.4533 792.298 44.0867 791.978 43.62C791.658 43.14 791.498 42.6 791.498 42C791.498 41.4267 791.631 40.9067 791.898 40.44C792.178 39.9733 792.625 39.6 793.238 39.32C793.865 39.04 794.705 38.9 795.758 38.9H799.118V40.28H795.838C794.878 40.28 794.231 40.44 793.898 40.76C793.565 41.08 793.398 41.4667 793.398 41.92C793.398 42.44 793.605 42.86 794.018 43.18C794.431 43.4867 795.005 43.64 795.738 43.64C796.458 43.64 797.085 43.48 797.618 43.16C798.165 42.84 798.558 42.3733 798.798 41.76L799.178 43.08C798.925 43.7067 798.478 44.2067 797.838 44.58C797.198 44.94 796.391 45.12 795.418 45.12ZM809.931 34.3C810.798 34.3 811.558 34.4667 812.211 34.8C812.878 35.1333 813.398 35.64 813.771 36.32C814.145 37 814.331 37.86 814.331 38.9V45H812.411V39.12C812.411 38.0933 812.158 37.32 811.651 36.8C811.158 36.28 810.458 36.02 809.551 36.02C808.871 36.02 808.278 36.1533 807.771 36.42C807.265 36.6867 806.871 37.08 806.591 37.6C806.325 38.12 806.191 38.7667 806.191 39.54V45H804.271V34.4H806.111V37.26L805.811 36.5C806.158 35.8067 806.691 35.2667 807.411 34.88C808.131 34.4933 808.971 34.3 809.931 34.3Z" fill="black"/>
</g>
<g filter="url(#filter2_d_947_1086)">
<path d="M190 300H522.877L540 337.5L522.877 375H190L207.143 337.5L190 300Z" fill="white"/>
<path d="M272.884 345.16C272.191 345.16 271.511 345.093 270.844 344.96C270.191 344.813 269.577 344.62 269.004 344.38C268.431 344.127 267.937 343.827 267.524 343.48L268.444 341.9C268.951 342.327 269.591 342.68 270.364 342.96C271.151 343.24 271.997 343.38 272.904 343.38C273.664 343.38 274.297 343.273 274.804 343.06C275.324 342.847 275.717 342.553 275.984 342.18C276.251 341.793 276.384 341.353 276.384 340.86C276.384 340.353 276.251 339.913 275.984 339.54C275.731 339.153 275.277 338.853 274.624 338.64C273.984 338.427 273.097 338.32 271.964 338.32H268.564L269.304 331H277.524V332.74H270.044L271.084 331.76L270.504 337.54L269.524 336.58H272.344C273.797 336.58 274.964 336.76 275.844 337.12C276.737 337.48 277.384 337.98 277.784 338.62C278.197 339.247 278.404 339.967 278.404 340.78C278.404 341.58 278.204 342.313 277.804 342.98C277.404 343.647 276.797 344.18 275.984 344.58C275.171 344.967 274.137 345.16 272.884 345.16ZM282.508 345.12C282.135 345.12 281.815 344.993 281.548 344.74C281.281 344.473 281.148 344.14 281.148 343.74C281.148 343.34 281.281 343.013 281.548 342.76C281.815 342.507 282.135 342.38 282.508 342.38C282.868 342.38 283.175 342.507 283.428 342.76C283.695 343.013 283.828 343.34 283.828 343.74C283.828 344.14 283.695 344.473 283.428 344.74C283.175 344.993 282.868 345.12 282.508 345.12ZM295.326 337.62H302.546V339.34H295.326V337.62ZM295.526 345H293.526V331H303.406V332.74H295.526V345ZM305.941 345V334.4H307.861V345H305.941ZM306.901 332.36C306.528 332.36 306.214 332.24 305.961 332C305.721 331.76 305.601 331.467 305.601 331.12C305.601 330.76 305.721 330.46 305.961 330.22C306.214 329.98 306.528 329.86 306.901 329.86C307.274 329.86 307.581 329.98 307.821 330.22C308.074 330.447 308.201 330.733 308.201 331.08C308.201 331.44 308.081 331.747 307.841 332C307.601 332.24 307.288 332.36 306.901 332.36ZM317.187 334.3C318.054 334.3 318.814 334.467 319.467 334.8C320.134 335.133 320.654 335.64 321.027 336.32C321.4 337 321.587 337.86 321.587 338.9V345H319.667V339.12C319.667 338.093 319.414 337.32 318.907 336.8C318.414 336.28 317.714 336.02 316.807 336.02C316.127 336.02 315.534 336.153 315.027 336.42C314.52 336.687 314.127 337.08 313.847 337.6C313.58 338.12 313.447 338.767 313.447 339.54V345H311.527V334.4H313.367V337.26L313.067 336.5C313.414 335.807 313.947 335.267 314.667 334.88C315.387 334.493 316.227 334.3 317.187 334.3ZM331.72 345V342.76L331.62 342.34V338.52C331.62 337.707 331.38 337.08 330.9 336.64C330.434 336.187 329.727 335.96 328.78 335.96C328.154 335.96 327.54 336.067 326.94 336.28C326.34 336.48 325.834 336.753 325.42 337.1L324.62 335.66C325.167 335.22 325.82 334.887 326.58 334.66C327.354 334.42 328.16 334.3 329 334.3C330.454 334.3 331.574 334.653 332.36 335.36C333.147 336.067 333.54 337.147 333.54 338.6V345H331.72ZM328.24 345.12C327.454 345.12 326.76 344.987 326.16 344.72C325.574 344.453 325.12 344.087 324.8 343.62C324.48 343.14 324.32 342.6 324.32 342C324.32 341.427 324.454 340.907 324.72 340.44C325 339.973 325.447 339.6 326.06 339.32C326.687 339.04 327.527 338.9 328.58 338.9H331.94V340.28H328.66C327.7 340.28 327.054 340.44 326.72 340.76C326.387 341.08 326.22 341.467 326.22 341.92C326.22 342.44 326.427 342.86 326.84 343.18C327.254 343.487 327.827 343.64 328.56 343.64C329.28 343.64 329.907 343.48 330.44 343.16C330.987 342.84 331.38 342.373 331.62 341.76L332 343.08C331.747 343.707 331.3 344.207 330.66 344.58C330.02 344.94 329.214 345.12 328.24 345.12ZM342.753 334.3C343.62 334.3 344.38 334.467 345.033 334.8C345.7 335.133 346.22 335.64 346.593 336.32C346.967 337 347.153 337.86 347.153 338.9V345H345.233V339.12C345.233 338.093 344.98 337.32 344.473 336.8C343.98 336.28 343.28 336.02 342.373 336.02C341.693 336.02 341.1 336.153 340.593 336.42C340.087 336.687 339.693 337.08 339.413 337.6C339.147 338.12 339.013 338.767 339.013 339.54V345H337.093V334.4H338.933V337.26L338.633 336.5C338.98 335.807 339.513 335.267 340.233 334.88C340.953 334.493 341.793 334.3 342.753 334.3ZM355.327 345.12C354.247 345.12 353.28 344.887 352.427 344.42C351.587 343.953 350.927 343.313 350.447 342.5C349.967 341.687 349.727 340.753 349.727 339.7C349.727 338.647 349.967 337.713 350.447 336.9C350.927 336.087 351.587 335.453 352.427 335C353.28 334.533 354.247 334.3 355.327 334.3C356.287 334.3 357.14 334.493 357.887 334.88C358.647 335.253 359.233 335.813 359.647 336.56L358.187 337.5C357.84 336.98 357.413 336.6 356.907 336.36C356.413 336.107 355.88 335.98 355.307 335.98C354.613 335.98 353.993 336.133 353.447 336.44C352.9 336.747 352.467 337.18 352.147 337.74C351.827 338.287 351.667 338.94 351.667 339.7C351.667 340.46 351.827 341.12 352.147 341.68C352.467 342.24 352.9 342.673 353.447 342.98C353.993 343.287 354.613 343.44 355.307 343.44C355.88 343.44 356.413 343.32 356.907 343.08C357.413 342.827 357.84 342.44 358.187 341.92L359.647 342.84C359.233 343.573 358.647 344.14 357.887 344.54C357.14 344.927 356.287 345.12 355.327 345.12ZM361.996 345V334.4H363.916V345H361.996ZM362.956 332.36C362.582 332.36 362.269 332.24 362.016 332C361.776 331.76 361.656 331.467 361.656 331.12C361.656 330.76 361.776 330.46 362.016 330.22C362.269 329.98 362.582 329.86 362.956 329.86C363.329 329.86 363.636 329.98 363.876 330.22C364.129 330.447 364.256 330.733 364.256 331.08C364.256 331.44 364.136 331.747 363.896 332C363.656 332.24 363.342 332.36 362.956 332.36ZM374.162 345V342.76L374.062 342.34V338.52C374.062 337.707 373.822 337.08 373.342 336.64C372.875 336.187 372.168 335.96 371.222 335.96C370.595 335.96 369.982 336.067 369.382 336.28C368.782 336.48 368.275 336.753 367.862 337.1L367.062 335.66C367.608 335.22 368.262 334.887 369.022 334.66C369.795 334.42 370.602 334.3 371.442 334.3C372.895 334.3 374.015 334.653 374.802 335.36C375.588 336.067 375.982 337.147 375.982 338.6V345H374.162ZM370.682 345.12C369.895 345.12 369.202 344.987 368.602 344.72C368.015 344.453 367.562 344.087 367.242 343.62C366.922 343.14 366.762 342.6 366.762 342C366.762 341.427 366.895 340.907 367.162 340.44C367.442 339.973 367.888 339.6 368.502 339.32C369.128 339.04 369.968 338.9 371.022 338.9H374.382V340.28H371.102C370.142 340.28 369.495 340.44 369.162 340.76C368.828 341.08 368.662 341.467 368.662 341.92C368.662 342.44 368.868 342.86 369.282 343.18C369.695 343.487 370.268 343.64 371.002 343.64C371.722 343.64 372.348 343.48 372.882 343.16C373.428 342.84 373.822 342.373 374.062 341.76L374.442 343.08C374.188 343.707 373.742 344.207 373.102 344.58C372.462 344.94 371.655 345.12 370.682 345.12ZM379.535 345V330.16H381.455V345H379.535ZM390.772 345V331H396.232C397.459 331 398.505 331.193 399.372 331.58C400.239 331.967 400.905 332.527 401.372 333.26C401.839 333.993 402.072 334.867 402.072 335.88C402.072 336.893 401.839 337.767 401.372 338.5C400.905 339.22 400.239 339.773 399.372 340.16C398.505 340.547 397.459 340.74 396.232 340.74H391.872L392.772 339.82V345H390.772ZM400.132 345L396.572 339.92H398.712L402.312 345H400.132ZM392.772 340.02L391.872 339.04H396.172C397.452 339.04 398.419 338.767 399.072 338.22C399.739 337.66 400.072 336.88 400.072 335.88C400.072 334.88 399.739 334.107 399.072 333.56C398.419 333.013 397.452 332.74 396.172 332.74H391.872L392.772 331.74V340.02ZM409.743 345.12C408.61 345.12 407.61 344.887 406.743 344.42C405.89 343.953 405.223 343.313 404.743 342.5C404.276 341.687 404.043 340.753 404.043 339.7C404.043 338.647 404.27 337.713 404.723 336.9C405.19 336.087 405.823 335.453 406.623 335C407.436 334.533 408.35 334.3 409.363 334.3C410.39 334.3 411.296 334.527 412.083 334.98C412.87 335.433 413.483 336.073 413.923 336.9C414.376 337.713 414.603 338.667 414.603 339.76C414.603 339.84 414.596 339.933 414.583 340.04C414.583 340.147 414.576 340.247 414.563 340.34H405.543V338.96H413.563L412.783 339.44C412.796 338.76 412.656 338.153 412.363 337.62C412.07 337.087 411.663 336.673 411.143 336.38C410.636 336.073 410.043 335.92 409.363 335.92C408.696 335.92 408.103 336.073 407.583 336.38C407.063 336.673 406.656 337.093 406.363 337.64C406.07 338.173 405.923 338.787 405.923 339.48V339.8C405.923 340.507 406.083 341.14 406.403 341.7C406.736 342.247 407.196 342.673 407.783 342.98C408.37 343.287 409.043 343.44 409.803 343.44C410.43 343.44 410.996 343.333 411.503 343.12C412.023 342.907 412.476 342.587 412.863 342.16L413.923 343.4C413.443 343.96 412.843 344.387 412.123 344.68C411.416 344.973 410.623 345.12 409.743 345.12ZM422.889 345.12C422.009 345.12 421.203 344.92 420.469 344.52C419.749 344.107 419.169 343.5 418.729 342.7C418.303 341.9 418.089 340.9 418.089 339.7C418.089 338.5 418.296 337.5 418.709 336.7C419.136 335.9 419.709 335.3 420.429 334.9C421.163 334.5 421.983 334.3 422.889 334.3C423.929 334.3 424.849 334.527 425.649 334.98C426.449 335.433 427.083 336.067 427.549 336.88C428.016 337.68 428.249 338.62 428.249 339.7C428.249 340.78 428.016 341.727 427.549 342.54C427.083 343.353 426.449 343.987 425.649 344.44C424.849 344.893 423.929 345.12 422.889 345.12ZM417.269 348.88V334.4H419.109V337.26L418.989 339.72L419.189 342.18V348.88H417.269ZM422.729 343.44C423.409 343.44 424.016 343.287 424.549 342.98C425.096 342.673 425.523 342.24 425.829 341.68C426.149 341.107 426.309 340.447 426.309 339.7C426.309 338.94 426.149 338.287 425.829 337.74C425.523 337.18 425.096 336.747 424.549 336.44C424.016 336.133 423.409 335.98 422.729 335.98C422.063 335.98 421.456 336.133 420.909 336.44C420.376 336.747 419.949 337.18 419.629 337.74C419.323 338.287 419.169 338.94 419.169 339.7C419.169 340.447 419.323 341.107 419.629 341.68C419.949 342.24 420.376 342.673 420.909 342.98C421.456 343.287 422.063 343.44 422.729 343.44ZM435.442 345.12C434.375 345.12 433.429 344.887 432.602 344.42C431.775 343.953 431.122 343.313 430.642 342.5C430.162 341.673 429.922 340.74 429.922 339.7C429.922 338.647 430.162 337.713 430.642 336.9C431.122 336.087 431.775 335.453 432.602 335C433.429 334.533 434.375 334.3 435.442 334.3C436.495 334.3 437.435 334.533 438.262 335C439.102 335.453 439.755 336.087 440.222 336.9C440.702 337.7 440.942 338.633 440.942 339.7C440.942 340.753 440.702 341.687 440.222 342.5C439.755 343.313 439.102 343.953 438.262 344.42C437.435 344.887 436.495 345.12 435.442 345.12ZM435.442 343.44C436.122 343.44 436.729 343.287 437.262 342.98C437.809 342.673 438.235 342.24 438.542 341.68C438.849 341.107 439.002 340.447 439.002 339.7C439.002 338.94 438.849 338.287 438.542 337.74C438.235 337.18 437.809 336.747 437.262 336.44C436.729 336.133 436.122 335.98 435.442 335.98C434.762 335.98 434.155 336.133 433.622 336.44C433.089 336.747 432.662 337.18 432.342 337.74C432.022 338.287 431.862 338.94 431.862 339.7C431.862 340.447 432.022 341.107 432.342 341.68C432.662 342.24 433.089 342.673 433.622 342.98C434.155 343.287 434.762 343.44 435.442 343.44ZM443.597 345V334.4H445.437V337.28L445.257 336.56C445.551 335.827 446.044 335.267 446.737 334.88C447.431 334.493 448.284 334.3 449.297 334.3V336.16C449.217 336.147 449.137 336.14 449.057 336.14C448.991 336.14 448.924 336.14 448.857 336.14C447.831 336.14 447.017 336.447 446.417 337.06C445.817 337.673 445.517 338.56 445.517 339.72V345H443.597ZM455.733 345.12C454.667 345.12 453.84 344.833 453.253 344.26C452.667 343.687 452.373 342.867 452.373 341.8V332.08H454.293V341.72C454.293 342.293 454.433 342.733 454.713 343.04C455.007 343.347 455.42 343.5 455.953 343.5C456.553 343.5 457.053 343.333 457.453 343L458.053 344.38C457.76 344.633 457.407 344.82 456.993 344.94C456.593 345.06 456.173 345.12 455.733 345.12ZM450.573 335.98V334.4H457.333V335.98H450.573ZM463.415 345.12C462.535 345.12 461.695 345 460.895 344.76C460.108 344.52 459.488 344.227 459.035 343.88L459.835 342.36C460.288 342.667 460.848 342.927 461.515 343.14C462.181 343.353 462.861 343.46 463.555 343.46C464.448 343.46 465.088 343.333 465.475 343.08C465.875 342.827 466.075 342.473 466.075 342.02C466.075 341.687 465.955 341.427 465.715 341.24C465.475 341.053 465.155 340.913 464.755 340.82C464.368 340.727 463.935 340.647 463.455 340.58C462.975 340.5 462.495 340.407 462.015 340.3C461.535 340.18 461.095 340.02 460.695 339.82C460.295 339.607 459.975 339.32 459.735 338.96C459.495 338.587 459.375 338.093 459.375 337.48C459.375 336.84 459.555 336.28 459.915 335.8C460.275 335.32 460.781 334.953 461.435 334.7C462.101 334.433 462.888 334.3 463.795 334.3C464.488 334.3 465.188 334.387 465.895 334.56C466.615 334.72 467.201 334.953 467.655 335.26L466.835 336.78C466.355 336.46 465.855 336.24 465.335 336.12C464.815 336 464.295 335.94 463.775 335.94C462.935 335.94 462.308 336.08 461.895 336.36C461.481 336.627 461.275 336.973 461.275 337.4C461.275 337.76 461.395 338.04 461.635 338.24C461.888 338.427 462.208 338.573 462.595 338.68C462.995 338.787 463.435 338.88 463.915 338.96C464.395 339.027 464.875 339.12 465.355 339.24C465.835 339.347 466.268 339.5 466.655 339.7C467.055 339.9 467.375 340.18 467.615 340.54C467.868 340.9 467.995 341.38 467.995 341.98C467.995 342.62 467.808 343.173 467.435 343.64C467.061 344.107 466.535 344.473 465.855 344.74C465.175 344.993 464.361 345.12 463.415 345.12Z" fill="black"/>
</g>
<g filter="url(#filter3_d_947_1086)">
<path d="M540 300H872.877L890 337.5L872.877 375H540L557.143 337.5L540 300Z" fill="white"/>
<path d="M618.364 345.16C617.11 345.16 616.03 344.9 615.124 344.38C614.217 343.847 613.517 343.06 613.024 342.02C612.544 340.98 612.304 339.707 612.304 338.2C612.304 337.08 612.464 336.067 612.784 335.16C613.117 334.253 613.59 333.48 614.204 332.84C614.83 332.2 615.57 331.707 616.424 331.36C617.29 331.013 618.257 330.84 619.324 330.84C619.964 330.84 620.59 330.913 621.204 331.06C621.817 331.193 622.35 331.393 622.804 331.66L622.044 333.26C621.67 333.007 621.25 332.827 620.784 332.72C620.317 332.613 619.83 332.56 619.324 332.56C618.337 332.56 617.457 332.767 616.684 333.18C615.924 333.58 615.33 334.173 614.904 334.96C614.477 335.747 614.264 336.72 614.264 337.88C614.264 338.173 614.284 338.513 614.324 338.9C614.364 339.287 614.424 339.667 614.504 340.04L613.944 339.2C614.09 338.68 614.377 338.213 614.804 337.8C615.244 337.387 615.784 337.067 616.424 336.84C617.077 336.613 617.79 336.5 618.564 336.5C619.524 336.5 620.377 336.68 621.124 337.04C621.87 337.387 622.457 337.88 622.884 338.52C623.31 339.147 623.524 339.887 623.524 340.74C623.524 341.62 623.297 342.393 622.844 343.06C622.404 343.727 621.797 344.247 621.024 344.62C620.25 344.98 619.364 345.16 618.364 345.16ZM618.304 343.54C618.93 343.54 619.484 343.427 619.964 343.2C620.457 342.973 620.844 342.66 621.124 342.26C621.404 341.847 621.544 341.367 621.544 340.82C621.544 340.287 621.404 339.82 621.124 339.42C620.857 339.007 620.47 338.687 619.964 338.46C619.47 338.233 618.884 338.12 618.204 338.12C617.577 338.12 617.004 338.233 616.484 338.46C615.964 338.687 615.55 339.007 615.244 339.42C614.95 339.82 614.804 340.287 614.804 340.82C614.804 341.26 614.937 341.687 615.204 342.1C615.47 342.513 615.864 342.86 616.384 343.14C616.917 343.407 617.557 343.54 618.304 343.54ZM627.108 345.12C626.734 345.12 626.414 344.993 626.148 344.74C625.881 344.473 625.748 344.14 625.748 343.74C625.748 343.34 625.881 343.013 626.148 342.76C626.414 342.507 626.734 342.38 627.108 342.38C627.468 342.38 627.774 342.507 628.028 342.76C628.294 343.013 628.428 343.34 628.428 343.74C628.428 344.14 628.294 344.473 628.028 344.74C627.774 344.993 627.468 345.12 627.108 345.12ZM644.385 345.16C643.319 345.16 642.332 344.987 641.425 344.64C640.532 344.28 639.752 343.78 639.085 343.14C638.432 342.487 637.919 341.727 637.545 340.86C637.172 339.993 636.985 339.04 636.985 338C636.985 336.96 637.172 336.007 637.545 335.14C637.919 334.273 638.439 333.52 639.105 332.88C639.772 332.227 640.552 331.727 641.445 331.38C642.352 331.02 643.339 330.84 644.405 330.84C645.485 330.84 646.479 331.027 647.385 331.4C648.305 331.76 649.085 332.3 649.725 333.02L648.425 334.28C647.892 333.72 647.292 333.307 646.625 333.04C645.959 332.76 645.245 332.62 644.485 332.62C643.699 332.62 642.965 332.753 642.285 333.02C641.619 333.287 641.039 333.66 640.545 334.14C640.052 334.62 639.665 335.193 639.385 335.86C639.119 336.513 638.985 337.227 638.985 338C638.985 338.773 639.119 339.493 639.385 340.16C639.665 340.813 640.052 341.38 640.545 341.86C641.039 342.34 641.619 342.713 642.285 342.98C642.965 343.247 643.699 343.38 644.485 343.38C645.245 343.38 645.959 343.247 646.625 342.98C647.292 342.7 647.892 342.273 648.425 341.7L649.725 342.96C649.085 343.68 648.305 344.227 647.385 344.6C646.479 344.973 645.479 345.16 644.385 345.16ZM656.426 345.12C655.52 345.12 654.72 344.953 654.026 344.62C653.346 344.287 652.813 343.78 652.426 343.1C652.053 342.407 651.866 341.54 651.866 340.5V334.4H653.786V340.28C653.786 341.32 654.033 342.1 654.526 342.62C655.033 343.14 655.74 343.4 656.646 343.4C657.313 343.4 657.893 343.267 658.386 343C658.88 342.72 659.26 342.32 659.526 341.8C659.793 341.267 659.926 340.627 659.926 339.88V334.4H661.846V345H660.026V342.14L660.326 342.9C659.98 343.607 659.46 344.153 658.766 344.54C658.073 344.927 657.293 345.12 656.426 345.12ZM668.542 345.12C667.662 345.12 666.822 345 666.022 344.76C665.235 344.52 664.615 344.227 664.162 343.88L664.962 342.36C665.415 342.667 665.975 342.927 666.642 343.14C667.308 343.353 667.988 343.46 668.682 343.46C669.575 343.46 670.215 343.333 670.602 343.08C671.002 342.827 671.202 342.473 671.202 342.02C671.202 341.687 671.082 341.427 670.842 341.24C670.602 341.053 670.282 340.913 669.882 340.82C669.495 340.727 669.062 340.647 668.582 340.58C668.102 340.5 667.622 340.407 667.142 340.3C666.662 340.18 666.222 340.02 665.822 339.82C665.422 339.607 665.102 339.32 664.862 338.96C664.622 338.587 664.502 338.093 664.502 337.48C664.502 336.84 664.682 336.28 665.042 335.8C665.402 335.32 665.908 334.953 666.562 334.7C667.228 334.433 668.015 334.3 668.922 334.3C669.615 334.3 670.315 334.387 671.022 334.56C671.742 334.72 672.328 334.953 672.782 335.26L671.962 336.78C671.482 336.46 670.982 336.24 670.462 336.12C669.942 336 669.422 335.94 668.902 335.94C668.062 335.94 667.435 336.08 667.022 336.36C666.608 336.627 666.402 336.973 666.402 337.4C666.402 337.76 666.522 338.04 666.762 338.24C667.015 338.427 667.335 338.573 667.722 338.68C668.122 338.787 668.562 338.88 669.042 338.96C669.522 339.027 670.002 339.12 670.482 339.24C670.962 339.347 671.395 339.5 671.782 339.7C672.182 339.9 672.502 340.18 672.742 340.54C672.995 340.9 673.122 341.38 673.122 341.98C673.122 342.62 672.935 343.173 672.562 343.64C672.188 344.107 671.662 344.473 670.982 344.74C670.302 344.993 669.488 345.12 668.542 345.12ZM679.161 345.12C678.095 345.12 677.268 344.833 676.681 344.26C676.095 343.687 675.801 342.867 675.801 341.8V332.08H677.721V341.72C677.721 342.293 677.861 342.733 678.141 343.04C678.435 343.347 678.848 343.5 679.381 343.5C679.981 343.5 680.481 343.333 680.881 343L681.481 344.38C681.188 344.633 680.835 344.82 680.421 344.94C680.021 345.06 679.601 345.12 679.161 345.12ZM674.001 335.98V334.4H680.761V335.98H674.001ZM687.991 345.12C686.924 345.12 685.978 344.887 685.151 344.42C684.324 343.953 683.671 343.313 683.191 342.5C682.711 341.673 682.471 340.74 682.471 339.7C682.471 338.647 682.711 337.713 683.191 336.9C683.671 336.087 684.324 335.453 685.151 335C685.978 334.533 686.924 334.3 687.991 334.3C689.044 334.3 689.984 334.533 690.811 335C691.651 335.453 692.304 336.087 692.771 336.9C693.251 337.7 693.491 338.633 693.491 339.7C693.491 340.753 693.251 341.687 692.771 342.5C692.304 343.313 691.651 343.953 690.811 344.42C689.984 344.887 689.044 345.12 687.991 345.12ZM687.991 343.44C688.671 343.44 689.278 343.287 689.811 342.98C690.358 342.673 690.784 342.24 691.091 341.68C691.398 341.107 691.551 340.447 691.551 339.7C691.551 338.94 691.398 338.287 691.091 337.74C690.784 337.18 690.358 336.747 689.811 336.44C689.278 336.133 688.671 335.98 687.991 335.98C687.311 335.98 686.704 336.133 686.171 336.44C685.638 336.747 685.211 337.18 684.891 337.74C684.571 338.287 684.411 338.94 684.411 339.7C684.411 340.447 684.571 341.107 684.891 341.68C685.211 342.24 685.638 342.673 686.171 342.98C686.704 343.287 687.311 343.44 687.991 343.44ZM709.406 334.3C710.26 334.3 711.013 334.467 711.666 334.8C712.32 335.133 712.826 335.64 713.186 336.32C713.56 337 713.746 337.86 713.746 338.9V345H711.826V339.12C711.826 338.093 711.586 337.32 711.106 336.8C710.626 336.28 709.953 336.02 709.086 336.02C708.446 336.02 707.886 336.153 707.406 336.42C706.926 336.687 706.553 337.08 706.286 337.6C706.033 338.12 705.906 338.767 705.906 339.54V345H703.986V339.12C703.986 338.093 703.746 337.32 703.266 336.8C702.8 336.28 702.126 336.02 701.246 336.02C700.62 336.02 700.066 336.153 699.586 336.42C699.106 336.687 698.733 337.08 698.466 337.6C698.2 338.12 698.066 338.767 698.066 339.54V345H696.146V334.4H697.986V337.22L697.686 336.5C698.02 335.807 698.533 335.267 699.226 334.88C699.92 334.493 700.726 334.3 701.646 334.3C702.66 334.3 703.533 334.553 704.266 335.06C705 335.553 705.48 336.307 705.706 337.32L704.926 337C705.246 336.187 705.806 335.533 706.606 335.04C707.406 334.547 708.34 334.3 709.406 334.3ZM721.999 345.12C720.866 345.12 719.866 344.887 718.999 344.42C718.146 343.953 717.479 343.313 716.999 342.5C716.532 341.687 716.299 340.753 716.299 339.7C716.299 338.647 716.526 337.713 716.979 336.9C717.446 336.087 718.079 335.453 718.879 335C719.692 334.533 720.606 334.3 721.619 334.3C722.646 334.3 723.552 334.527 724.339 334.98C725.126 335.433 725.739 336.073 726.179 336.9C726.632 337.713 726.859 338.667 726.859 339.76C726.859 339.84 726.852 339.933 726.839 340.04C726.839 340.147 726.832 340.247 726.819 340.34H717.799V338.96H725.819L725.039 339.44C725.052 338.76 724.912 338.153 724.619 337.62C724.326 337.087 723.919 336.673 723.399 336.38C722.892 336.073 722.299 335.92 721.619 335.92C720.952 335.92 720.359 336.073 719.839 336.38C719.319 336.673 718.912 337.093 718.619 337.64C718.326 338.173 718.179 338.787 718.179 339.48V339.8C718.179 340.507 718.339 341.14 718.659 341.7C718.992 342.247 719.452 342.673 720.039 342.98C720.626 343.287 721.299 343.44 722.059 343.44C722.686 343.44 723.252 343.333 723.759 343.12C724.279 342.907 724.732 342.587 725.119 342.16L726.179 343.4C725.699 343.96 725.099 344.387 724.379 344.68C723.672 344.973 722.879 345.12 721.999 345.12ZM729.525 345V334.4H731.365V337.28L731.185 336.56C731.478 335.827 731.972 335.267 732.665 334.88C733.358 334.493 734.212 334.3 735.225 334.3V336.16C735.145 336.147 735.065 336.14 734.985 336.14C734.918 336.14 734.852 336.14 734.785 336.14C733.758 336.14 732.945 336.447 732.345 337.06C731.745 337.673 731.445 338.56 731.445 339.72V345H729.525ZM747.459 345.16C746.393 345.16 745.373 345 744.399 344.68C743.426 344.347 742.659 343.92 742.099 343.4L742.839 341.84C743.373 342.307 744.053 342.693 744.879 343C745.706 343.307 746.566 343.46 747.459 343.46C748.273 343.46 748.933 343.367 749.439 343.18C749.946 342.993 750.319 342.74 750.559 342.42C750.799 342.087 750.919 341.713 750.919 341.3C750.919 340.82 750.759 340.433 750.439 340.14C750.133 339.847 749.726 339.613 749.219 339.44C748.726 339.253 748.179 339.093 747.579 338.96C746.979 338.827 746.373 338.673 745.759 338.5C745.159 338.313 744.606 338.08 744.099 337.8C743.606 337.52 743.206 337.147 742.899 336.68C742.593 336.2 742.439 335.587 742.439 334.84C742.439 334.12 742.626 333.46 742.999 332.86C743.386 332.247 743.973 331.76 744.759 331.4C745.559 331.027 746.573 330.84 747.799 330.84C748.613 330.84 749.419 330.947 750.219 331.16C751.019 331.373 751.713 331.68 752.299 332.08L751.639 333.68C751.039 333.28 750.406 332.993 749.739 332.82C749.073 332.633 748.426 332.54 747.799 332.54C747.013 332.54 746.366 332.64 745.859 332.84C745.353 333.04 744.979 333.307 744.739 333.64C744.513 333.973 744.399 334.347 744.399 334.76C744.399 335.253 744.553 335.647 744.859 335.94C745.179 336.233 745.586 336.467 746.079 336.64C746.586 336.813 747.139 336.973 747.739 337.12C748.339 337.253 748.939 337.407 749.539 337.58C750.153 337.753 750.706 337.98 751.199 338.26C751.706 338.54 752.113 338.913 752.419 339.38C752.726 339.847 752.879 340.447 752.879 341.18C752.879 341.887 752.686 342.547 752.299 343.16C751.913 343.76 751.313 344.247 750.499 344.62C749.699 344.98 748.686 345.16 747.459 345.16ZM759.981 345.12C759.075 345.12 758.275 344.953 757.581 344.62C756.901 344.287 756.368 343.78 755.981 343.1C755.608 342.407 755.421 341.54 755.421 340.5V334.4H757.341V340.28C757.341 341.32 757.588 342.1 758.081 342.62C758.588 343.14 759.295 343.4 760.201 343.4C760.868 343.4 761.448 343.267 761.941 343C762.435 342.72 762.815 342.32 763.081 341.8C763.348 341.267 763.481 340.627 763.481 339.88V334.4H765.401V345H763.581V342.14L763.881 342.9C763.535 343.607 763.015 344.153 762.321 344.54C761.628 344.927 760.848 345.12 759.981 345.12ZM774.676 345.12C773.796 345.12 772.99 344.92 772.256 344.52C771.536 344.107 770.956 343.5 770.516 342.7C770.09 341.9 769.876 340.9 769.876 339.7C769.876 338.5 770.083 337.5 770.496 336.7C770.923 335.9 771.496 335.3 772.216 334.9C772.95 334.5 773.77 334.3 774.676 334.3C775.716 334.3 776.636 334.527 777.436 334.98C778.236 335.433 778.87 336.067 779.336 336.88C779.803 337.68 780.036 338.62 780.036 339.7C780.036 340.78 779.803 341.727 779.336 342.54C778.87 343.353 778.236 343.987 777.436 344.44C776.636 344.893 775.716 345.12 774.676 345.12ZM769.056 348.88V334.4H770.896V337.26L770.776 339.72L770.976 342.18V348.88H769.056ZM774.516 343.44C775.196 343.44 775.803 343.287 776.336 342.98C776.883 342.673 777.31 342.24 777.616 341.68C777.936 341.107 778.096 340.447 778.096 339.7C778.096 338.94 777.936 338.287 777.616 337.74C777.31 337.18 776.883 336.747 776.336 336.44C775.803 336.133 775.196 335.98 774.516 335.98C773.85 335.98 773.243 336.133 772.696 336.44C772.163 336.747 771.736 337.18 771.416 337.74C771.11 338.287 770.956 338.94 770.956 339.7C770.956 340.447 771.11 341.107 771.416 341.68C771.736 342.24 772.163 342.673 772.696 342.98C773.243 343.287 773.85 343.44 774.516 343.44ZM788.309 345.12C787.429 345.12 786.622 344.92 785.889 344.52C785.169 344.107 784.589 343.5 784.149 342.7C783.722 341.9 783.509 340.9 783.509 339.7C783.509 338.5 783.716 337.5 784.129 336.7C784.556 335.9 785.129 335.3 785.849 334.9C786.582 334.5 787.402 334.3 788.309 334.3C789.349 334.3 790.269 334.527 791.069 334.98C791.869 335.433 792.502 336.067 792.969 336.88C793.436 337.68 793.669 338.62 793.669 339.7C793.669 340.78 793.436 341.727 792.969 342.54C792.502 343.353 791.869 343.987 791.069 344.44C790.269 344.893 789.349 345.12 788.309 345.12ZM782.689 348.88V334.4H784.529V337.26L784.409 339.72L784.609 342.18V348.88H782.689ZM788.149 343.44C788.829 343.44 789.436 343.287 789.969 342.98C790.516 342.673 790.942 342.24 791.249 341.68C791.569 341.107 791.729 340.447 791.729 339.7C791.729 338.94 791.569 338.287 791.249 337.74C790.942 337.18 790.516 336.747 789.969 336.44C789.436 336.133 788.829 335.98 788.149 335.98C787.482 335.98 786.876 336.133 786.329 336.44C785.796 336.747 785.369 337.18 785.049 337.74C784.742 338.287 784.589 338.94 784.589 339.7C784.589 340.447 784.742 341.107 785.049 341.68C785.369 342.24 785.796 342.673 786.329 342.98C786.876 343.287 787.482 343.44 788.149 343.44ZM800.862 345.12C799.795 345.12 798.849 344.887 798.022 344.42C797.195 343.953 796.542 343.313 796.062 342.5C795.582 341.673 795.342 340.74 795.342 339.7C795.342 338.647 795.582 337.713 796.062 336.9C796.542 336.087 797.195 335.453 798.022 335C798.849 334.533 799.795 334.3 800.862 334.3C801.915 334.3 802.855 334.533 803.682 335C804.522 335.453 805.175 336.087 805.642 336.9C806.122 337.7 806.362 338.633 806.362 339.7C806.362 340.753 806.122 341.687 805.642 342.5C805.175 343.313 804.522 343.953 803.682 344.42C802.855 344.887 801.915 345.12 800.862 345.12ZM800.862 343.44C801.542 343.44 802.149 343.287 802.682 342.98C803.229 342.673 803.655 342.24 803.962 341.68C804.269 341.107 804.422 340.447 804.422 339.7C804.422 338.94 804.269 338.287 803.962 337.74C803.655 337.18 803.229 336.747 802.682 336.44C802.149 336.133 801.542 335.98 800.862 335.98C800.182 335.98 799.575 336.133 799.042 336.44C798.509 336.747 798.082 337.18 797.762 337.74C797.442 338.287 797.282 338.94 797.282 339.7C797.282 340.447 797.442 341.107 797.762 341.68C798.082 342.24 798.509 342.673 799.042 342.98C799.575 343.287 800.182 343.44 800.862 343.44ZM809.017 345V334.4H810.857V337.28L810.677 336.56C810.971 335.827 811.464 335.267 812.157 334.88C812.851 334.493 813.704 334.3 814.717 334.3V336.16C814.637 336.147 814.557 336.14 814.477 336.14C814.411 336.14 814.344 336.14 814.277 336.14C813.251 336.14 812.437 336.447 811.837 337.06C811.237 337.673 810.937 338.56 810.937 339.72V345H809.017ZM821.153 345.12C820.087 345.12 819.26 344.833 818.673 344.26C818.087 343.687 817.793 342.867 817.793 341.8V332.08H819.713V341.72C819.713 342.293 819.853 342.733 820.133 343.04C820.427 343.347 820.84 343.5 821.373 343.5C821.973 343.5 822.473 343.333 822.873 343L823.473 344.38C823.18 344.633 822.827 344.82 822.413 344.94C822.013 345.06 821.593 345.12 821.153 345.12ZM815.993 335.98V334.4H822.753V335.98H815.993Z" fill="black"/>
</g>
<g filter="url(#filter4_d_947_1086)">
<path d="M540 225L207.123 225L190 187.5L207.123 150L540 150L522.857 187.5L540 225Z" fill="white"/>
<path d="M252.968 191.56V190.16L259.308 181H261.488L255.148 190.16L254.168 189.84H264.728V191.56H252.968ZM260.188 195V191.56L260.268 189.84V186.88H262.088V195H260.188ZM268.192 195.12C267.818 195.12 267.498 194.993 267.232 194.74C266.965 194.473 266.832 194.14 266.832 193.74C266.832 193.34 266.965 193.013 267.232 192.76C267.498 192.507 267.818 192.38 268.192 192.38C268.552 192.38 268.858 192.507 269.112 192.76C269.378 193.013 269.512 193.34 269.512 193.74C269.512 194.14 269.378 194.473 269.112 194.74C268.858 194.993 268.552 195.12 268.192 195.12ZM279.209 195V181H284.669C285.896 181 286.943 181.193 287.809 181.58C288.676 181.967 289.343 182.527 289.809 183.26C290.276 183.993 290.509 184.867 290.509 185.88C290.509 186.893 290.276 187.767 289.809 188.5C289.343 189.22 288.676 189.773 287.809 190.16C286.943 190.547 285.896 190.74 284.669 190.74H280.309L281.209 189.82V195H279.209ZM288.569 195L285.009 189.92H287.149L290.749 195H288.569ZM281.209 190.02L280.309 189.04H284.609C285.889 189.04 286.856 188.767 287.509 188.22C288.176 187.66 288.509 186.88 288.509 185.88C288.509 184.88 288.176 184.107 287.509 183.56C286.856 183.013 285.889 182.74 284.609 182.74H280.309L281.209 181.74V190.02ZM298.181 195.12C297.047 195.12 296.047 194.887 295.181 194.42C294.327 193.953 293.661 193.313 293.181 192.5C292.714 191.687 292.481 190.753 292.481 189.7C292.481 188.647 292.707 187.713 293.161 186.9C293.627 186.087 294.261 185.453 295.061 185C295.874 184.533 296.787 184.3 297.801 184.3C298.827 184.3 299.734 184.527 300.521 184.98C301.307 185.433 301.921 186.073 302.361 186.9C302.814 187.713 303.041 188.667 303.041 189.76C303.041 189.84 303.034 189.933 303.021 190.04C303.021 190.147 303.014 190.247 303.001 190.34H293.981V188.96H302.001L301.221 189.44C301.234 188.76 301.094 188.153 300.801 187.62C300.507 187.087 300.101 186.673 299.581 186.38C299.074 186.073 298.481 185.92 297.801 185.92C297.134 185.92 296.541 186.073 296.021 186.38C295.501 186.673 295.094 187.093 294.801 187.64C294.507 188.173 294.361 188.787 294.361 189.48V189.8C294.361 190.507 294.521 191.14 294.841 191.7C295.174 192.247 295.634 192.673 296.221 192.98C296.807 193.287 297.481 193.44 298.241 193.44C298.867 193.44 299.434 193.333 299.941 193.12C300.461 192.907 300.914 192.587 301.301 192.16L302.361 193.4C301.881 193.96 301.281 194.387 300.561 194.68C299.854 194.973 299.061 195.12 298.181 195.12ZM310.327 195.12C309.247 195.12 308.28 194.887 307.427 194.42C306.587 193.953 305.927 193.313 305.447 192.5C304.967 191.687 304.727 190.753 304.727 189.7C304.727 188.647 304.967 187.713 305.447 186.9C305.927 186.087 306.587 185.453 307.427 185C308.28 184.533 309.247 184.3 310.327 184.3C311.287 184.3 312.14 184.493 312.887 184.88C313.647 185.253 314.233 185.813 314.647 186.56L313.187 187.5C312.84 186.98 312.413 186.6 311.907 186.36C311.413 186.107 310.88 185.98 310.307 185.98C309.613 185.98 308.993 186.133 308.447 186.44C307.9 186.747 307.467 187.18 307.147 187.74C306.827 188.287 306.667 188.94 306.667 189.7C306.667 190.46 306.827 191.12 307.147 191.68C307.467 192.24 307.9 192.673 308.447 192.98C308.993 193.287 309.613 193.44 310.307 193.44C310.88 193.44 311.413 193.32 311.907 193.08C312.413 192.827 312.84 192.44 313.187 191.92L314.647 192.84C314.233 193.573 313.647 194.14 312.887 194.54C312.14 194.927 311.287 195.12 310.327 195.12ZM321.516 195.12C320.45 195.12 319.503 194.887 318.676 194.42C317.85 193.953 317.196 193.313 316.716 192.5C316.236 191.673 315.996 190.74 315.996 189.7C315.996 188.647 316.236 187.713 316.716 186.9C317.196 186.087 317.85 185.453 318.676 185C319.503 184.533 320.45 184.3 321.516 184.3C322.57 184.3 323.51 184.533 324.336 185C325.176 185.453 325.83 186.087 326.296 186.9C326.776 187.7 327.016 188.633 327.016 189.7C327.016 190.753 326.776 191.687 326.296 192.5C325.83 193.313 325.176 193.953 324.336 194.42C323.51 194.887 322.57 195.12 321.516 195.12ZM321.516 193.44C322.196 193.44 322.803 193.287 323.336 192.98C323.883 192.673 324.31 192.24 324.616 191.68C324.923 191.107 325.076 190.447 325.076 189.7C325.076 188.94 324.923 188.287 324.616 187.74C324.31 187.18 323.883 186.747 323.336 186.44C322.803 186.133 322.196 185.98 321.516 185.98C320.836 185.98 320.23 186.133 319.696 186.44C319.163 186.747 318.736 187.18 318.416 187.74C318.096 188.287 317.936 188.94 317.936 189.7C317.936 190.447 318.096 191.107 318.416 191.68C318.736 192.24 319.163 192.673 319.696 192.98C320.23 193.287 320.836 193.44 321.516 193.44ZM329.672 195V184.4H331.512V187.28L331.332 186.56C331.625 185.827 332.118 185.267 332.812 184.88C333.505 184.493 334.358 184.3 335.372 184.3V186.16C335.292 186.147 335.212 186.14 335.132 186.14C335.065 186.14 334.998 186.14 334.932 186.14C333.905 186.14 333.092 186.447 332.492 187.06C331.892 187.673 331.592 188.56 331.592 189.72V195H329.672ZM342.02 195.12C340.994 195.12 340.074 194.893 339.26 194.44C338.46 193.987 337.827 193.353 337.36 192.54C336.894 191.727 336.66 190.78 336.66 189.7C336.66 188.62 336.894 187.68 337.36 186.88C337.827 186.067 338.46 185.433 339.26 184.98C340.074 184.527 340.994 184.3 342.02 184.3C342.914 184.3 343.72 184.5 344.44 184.9C345.16 185.3 345.734 185.9 346.16 186.7C346.6 187.5 346.82 188.5 346.82 189.7C346.82 190.9 346.607 191.9 346.18 192.7C345.767 193.5 345.2 194.107 344.48 194.52C343.76 194.92 342.94 195.12 342.02 195.12ZM342.18 193.44C342.847 193.44 343.447 193.287 343.98 192.98C344.527 192.673 344.954 192.24 345.26 191.68C345.58 191.107 345.74 190.447 345.74 189.7C345.74 188.94 345.58 188.287 345.26 187.74C344.954 187.18 344.527 186.747 343.98 186.44C343.447 186.133 342.847 185.98 342.18 185.98C341.5 185.98 340.894 186.133 340.36 186.44C339.827 186.747 339.4 187.18 339.08 187.74C338.76 188.287 338.6 188.94 338.6 189.7C338.6 190.447 338.76 191.107 339.08 191.68C339.4 192.24 339.827 192.673 340.36 192.98C340.894 193.287 341.5 193.44 342.18 193.44ZM345.8 195V192.14L345.92 189.68L345.72 187.22V180.16H347.64V195H345.8ZM359.704 195V182.74H354.904V181H366.484V182.74H361.684V195H359.704ZM368.129 195V184.4H369.969V187.28L369.789 186.56C370.082 185.827 370.575 185.267 371.269 184.88C371.962 184.493 372.815 184.3 373.829 184.3V186.16C373.749 186.147 373.669 186.14 373.589 186.14C373.522 186.14 373.455 186.14 373.389 186.14C372.362 186.14 371.549 186.447 370.949 187.06C370.349 187.673 370.049 188.56 370.049 189.72V195H368.129ZM381.994 195V192.76L381.894 192.34V188.52C381.894 187.707 381.654 187.08 381.174 186.64C380.707 186.187 380 185.96 379.054 185.96C378.427 185.96 377.814 186.067 377.214 186.28C376.614 186.48 376.107 186.753 375.694 187.1L374.894 185.66C375.44 185.22 376.094 184.887 376.854 184.66C377.627 184.42 378.434 184.3 379.274 184.3C380.727 184.3 381.847 184.653 382.634 185.36C383.42 186.067 383.814 187.147 383.814 188.6V195H381.994ZM378.514 195.12C377.727 195.12 377.034 194.987 376.434 194.72C375.847 194.453 375.394 194.087 375.074 193.62C374.754 193.14 374.594 192.6 374.594 192C374.594 191.427 374.727 190.907 374.994 190.44C375.274 189.973 375.72 189.6 376.334 189.32C376.96 189.04 377.8 188.9 378.854 188.9H382.214V190.28H378.934C377.974 190.28 377.327 190.44 376.994 190.76C376.66 191.08 376.494 191.467 376.494 191.92C376.494 192.44 376.7 192.86 377.114 193.18C377.527 193.487 378.1 193.64 378.834 193.64C379.554 193.64 380.18 193.48 380.714 193.16C381.26 192.84 381.654 192.373 381.894 191.76L382.274 193.08C382.02 193.707 381.574 194.207 380.934 194.58C380.294 194.94 379.487 195.12 378.514 195.12ZM393.027 184.3C393.894 184.3 394.654 184.467 395.307 184.8C395.974 185.133 396.494 185.64 396.867 186.32C397.24 187 397.427 187.86 397.427 188.9V195H395.507V189.12C395.507 188.093 395.254 187.32 394.747 186.8C394.254 186.28 393.554 186.02 392.647 186.02C391.967 186.02 391.374 186.153 390.867 186.42C390.36 186.687 389.967 187.08 389.687 187.6C389.42 188.12 389.287 188.767 389.287 189.54V195H387.367V184.4H389.207V187.26L388.907 186.5C389.254 185.807 389.787 185.267 390.507 184.88C391.227 184.493 392.067 184.3 393.027 184.3ZM404.02 195.12C403.14 195.12 402.3 195 401.5 194.76C400.713 194.52 400.093 194.227 399.64 193.88L400.44 192.36C400.893 192.667 401.453 192.927 402.12 193.14C402.787 193.353 403.467 193.46 404.16 193.46C405.053 193.46 405.693 193.333 406.08 193.08C406.48 192.827 406.68 192.473 406.68 192.02C406.68 191.687 406.56 191.427 406.32 191.24C406.08 191.053 405.76 190.913 405.36 190.82C404.973 190.727 404.54 190.647 404.06 190.58C403.58 190.5 403.1 190.407 402.62 190.3C402.14 190.18 401.7 190.02 401.3 189.82C400.9 189.607 400.58 189.32 400.34 188.96C400.1 188.587 399.98 188.093 399.98 187.48C399.98 186.84 400.16 186.28 400.52 185.8C400.88 185.32 401.387 184.953 402.04 184.7C402.707 184.433 403.493 184.3 404.4 184.3C405.093 184.3 405.793 184.387 406.5 184.56C407.22 184.72 407.807 184.953 408.26 185.26L407.44 186.78C406.96 186.46 406.46 186.24 405.94 186.12C405.42 186 404.9 185.94 404.38 185.94C403.54 185.94 402.913 186.08 402.5 186.36C402.087 186.627 401.88 186.973 401.88 187.4C401.88 187.76 402 188.04 402.24 188.24C402.493 188.427 402.813 188.573 403.2 188.68C403.6 188.787 404.04 188.88 404.52 188.96C405 189.027 405.48 189.12 405.96 189.24C406.44 189.347 406.873 189.5 407.26 189.7C407.66 189.9 407.98 190.18 408.22 190.54C408.473 190.9 408.6 191.38 408.6 191.98C408.6 192.62 408.413 193.173 408.04 193.64C407.667 194.107 407.14 194.473 406.46 194.74C405.78 194.993 404.967 195.12 404.02 195.12ZM417.58 195V192.76L417.48 192.34V188.52C417.48 187.707 417.24 187.08 416.76 186.64C416.293 186.187 415.586 185.96 414.64 185.96C414.013 185.96 413.4 186.067 412.8 186.28C412.2 186.48 411.693 186.753 411.28 187.1L410.48 185.66C411.026 185.22 411.68 184.887 412.44 184.66C413.213 184.42 414.02 184.3 414.86 184.3C416.313 184.3 417.433 184.653 418.22 185.36C419.006 186.067 419.4 187.147 419.4 188.6V195H417.58ZM414.1 195.12C413.313 195.12 412.62 194.987 412.02 194.72C411.433 194.453 410.98 194.087 410.66 193.62C410.34 193.14 410.18 192.6 410.18 192C410.18 191.427 410.313 190.907 410.58 190.44C410.86 189.973 411.306 189.6 411.92 189.32C412.546 189.04 413.386 188.9 414.44 188.9H417.8V190.28H414.52C413.56 190.28 412.913 190.44 412.58 190.76C412.246 191.08 412.08 191.467 412.08 191.92C412.08 192.44 412.286 192.86 412.7 193.18C413.113 193.487 413.686 193.64 414.42 193.64C415.14 193.64 415.766 193.48 416.3 193.16C416.846 192.84 417.24 192.373 417.48 191.76L417.86 193.08C417.606 193.707 417.16 194.207 416.52 194.58C415.88 194.94 415.073 195.12 414.1 195.12ZM427.573 195.12C426.493 195.12 425.526 194.887 424.673 194.42C423.833 193.953 423.173 193.313 422.693 192.5C422.213 191.687 421.973 190.753 421.973 189.7C421.973 188.647 422.213 187.713 422.693 186.9C423.173 186.087 423.833 185.453 424.673 185C425.526 184.533 426.493 184.3 427.573 184.3C428.533 184.3 429.386 184.493 430.133 184.88C430.893 185.253 431.479 185.813 431.893 186.56L430.433 187.5C430.086 186.98 429.659 186.6 429.153 186.36C428.659 186.107 428.126 185.98 427.553 185.98C426.859 185.98 426.239 186.133 425.693 186.44C425.146 186.747 424.713 187.18 424.393 187.74C424.073 188.287 423.913 188.94 423.913 189.7C423.913 190.46 424.073 191.12 424.393 191.68C424.713 192.24 425.146 192.673 425.693 192.98C426.239 193.287 426.859 193.44 427.553 193.44C428.126 193.44 428.659 193.32 429.153 193.08C429.659 192.827 430.086 192.44 430.433 191.92L431.893 192.84C431.479 193.573 430.893 194.14 430.133 194.54C429.386 194.927 428.533 195.12 427.573 195.12ZM438.155 195.12C437.089 195.12 436.262 194.833 435.675 194.26C435.089 193.687 434.795 192.867 434.795 191.8V182.08H436.715V191.72C436.715 192.293 436.855 192.733 437.135 193.04C437.429 193.347 437.842 193.5 438.375 193.5C438.975 193.5 439.475 193.333 439.875 193L440.475 194.38C440.182 194.633 439.829 194.82 439.415 194.94C439.015 195.06 438.595 195.12 438.155 195.12ZM432.995 185.98V184.4H439.755V185.98H432.995ZM442.797 195V184.4H444.717V195H442.797ZM443.757 182.36C443.383 182.36 443.07 182.24 442.817 182C442.577 181.76 442.457 181.467 442.457 181.12C442.457 180.76 442.577 180.46 442.817 180.22C443.07 179.98 443.383 179.86 443.757 179.86C444.13 179.86 444.437 179.98 444.677 180.22C444.93 180.447 445.057 180.733 445.057 181.08C445.057 181.44 444.937 181.747 444.697 182C444.457 182.24 444.143 182.36 443.757 182.36ZM452.923 195.12C451.856 195.12 450.909 194.887 450.083 194.42C449.256 193.953 448.603 193.313 448.123 192.5C447.643 191.673 447.403 190.74 447.403 189.7C447.403 188.647 447.643 187.713 448.123 186.9C448.603 186.087 449.256 185.453 450.083 185C450.909 184.533 451.856 184.3 452.923 184.3C453.976 184.3 454.916 184.533 455.743 185C456.583 185.453 457.236 186.087 457.703 186.9C458.183 187.7 458.423 188.633 458.423 189.7C458.423 190.753 458.183 191.687 457.703 192.5C457.236 193.313 456.583 193.953 455.743 194.42C454.916 194.887 453.976 195.12 452.923 195.12ZM452.923 193.44C453.603 193.44 454.209 193.287 454.743 192.98C455.289 192.673 455.716 192.24 456.023 191.68C456.329 191.107 456.483 190.447 456.483 189.7C456.483 188.94 456.329 188.287 456.023 187.74C455.716 187.18 455.289 186.747 454.743 186.44C454.209 186.133 453.603 185.98 452.923 185.98C452.243 185.98 451.636 186.133 451.103 186.44C450.569 186.747 450.143 187.18 449.823 187.74C449.503 188.287 449.343 188.94 449.343 189.7C449.343 190.447 449.503 191.107 449.823 191.68C450.143 192.24 450.569 192.673 451.103 192.98C451.636 193.287 452.243 193.44 452.923 193.44ZM466.738 184.3C467.604 184.3 468.364 184.467 469.018 184.8C469.684 185.133 470.204 185.64 470.578 186.32C470.951 187 471.138 187.86 471.138 188.9V195H469.218V189.12C469.218 188.093 468.964 187.32 468.458 186.8C467.964 186.28 467.264 186.02 466.358 186.02C465.678 186.02 465.084 186.153 464.578 186.42C464.071 186.687 463.678 187.08 463.398 187.6C463.131 188.12 462.998 188.767 462.998 189.54V195H461.078V184.4H462.918V187.26L462.618 186.5C462.964 185.807 463.498 185.267 464.218 184.88C464.938 184.493 465.778 184.3 466.738 184.3ZM477.731 195.12C476.851 195.12 476.011 195 475.211 194.76C474.424 194.52 473.804 194.227 473.351 193.88L474.151 192.36C474.604 192.667 475.164 192.927 475.831 193.14C476.498 193.353 477.178 193.46 477.871 193.46C478.764 193.46 479.404 193.333 479.791 193.08C480.191 192.827 480.391 192.473 480.391 192.02C480.391 191.687 480.271 191.427 480.031 191.24C479.791 191.053 479.471 190.913 479.071 190.82C478.684 190.727 478.251 190.647 477.771 190.58C477.291 190.5 476.811 190.407 476.331 190.3C475.851 190.18 475.411 190.02 475.011 189.82C474.611 189.607 474.291 189.32 474.051 188.96C473.811 188.587 473.691 188.093 473.691 187.48C473.691 186.84 473.871 186.28 474.231 185.8C474.591 185.32 475.098 184.953 475.751 184.7C476.418 184.433 477.204 184.3 478.111 184.3C478.804 184.3 479.504 184.387 480.211 184.56C480.931 184.72 481.518 184.953 481.971 185.26L481.151 186.78C480.671 186.46 480.171 186.24 479.651 186.12C479.131 186 478.611 185.94 478.091 185.94C477.251 185.94 476.624 186.08 476.211 186.36C475.798 186.627 475.591 186.973 475.591 187.4C475.591 187.76 475.711 188.04 475.951 188.24C476.204 188.427 476.524 188.573 476.911 188.68C477.311 188.787 477.751 188.88 478.231 188.96C478.711 189.027 479.191 189.12 479.671 189.24C480.151 189.347 480.584 189.5 480.971 189.7C481.371 189.9 481.691 190.18 481.931 190.54C482.184 190.9 482.311 191.38 482.311 191.98C482.311 192.62 482.124 193.173 481.751 193.64C481.378 194.107 480.851 194.473 480.171 194.74C479.491 194.993 478.678 195.12 477.731 195.12Z" fill="black"/>
</g>
<g filter="url(#filter5_d_947_1086)">
<path d="M890 225L557.123 225L540 187.5L557.123 150L890 150L872.857 187.5L890 225Z" fill="white"/>
<path d="M649.464 195.16C648.331 195.16 647.298 195.007 646.364 194.7C645.444 194.393 644.698 193.98 644.124 193.46L645.144 191.88C645.638 192.32 646.231 192.68 646.924 192.96C647.631 193.24 648.478 193.38 649.464 193.38C650.571 193.38 651.431 193.16 652.044 192.72C652.671 192.267 652.984 191.66 652.984 190.9C652.984 190.167 652.678 189.58 652.064 189.14C651.464 188.687 650.544 188.46 649.304 188.46H648.164V187.06L652.564 181.94L652.844 182.74H644.464V181H654.424V182.36L650.024 187.46L649.004 186.84H649.684C651.404 186.84 652.718 187.22 653.624 187.98C654.531 188.74 654.984 189.707 654.984 190.88C654.984 191.667 654.778 192.387 654.364 193.04C653.964 193.693 653.358 194.213 652.544 194.6C651.731 194.973 650.704 195.16 649.464 195.16ZM659.168 195.12C658.795 195.12 658.475 194.993 658.208 194.74C657.941 194.473 657.808 194.14 657.808 193.74C657.808 193.34 657.941 193.013 658.208 192.76C658.475 192.507 658.795 192.38 659.168 192.38C659.528 192.38 659.835 192.507 660.088 192.76C660.355 193.013 660.488 193.34 660.488 193.74C660.488 194.14 660.355 194.473 660.088 194.74C659.835 194.993 659.528 195.12 659.168 195.12ZM676.506 195.16C675.426 195.16 674.433 194.987 673.526 194.64C672.619 194.28 671.833 193.78 671.166 193.14C670.499 192.487 669.979 191.727 669.606 190.86C669.233 189.993 669.046 189.04 669.046 188C669.046 186.96 669.233 186.007 669.606 185.14C669.979 184.273 670.499 183.52 671.166 182.88C671.846 182.227 672.639 181.727 673.546 181.38C674.453 181.02 675.453 180.84 676.546 180.84C677.653 180.84 678.666 181.02 679.586 181.38C680.506 181.74 681.286 182.28 681.926 183L680.686 184.24C680.113 183.68 679.486 183.273 678.806 183.02C678.139 182.753 677.413 182.62 676.626 182.62C675.826 182.62 675.079 182.753 674.386 183.02C673.706 183.287 673.113 183.66 672.606 184.14C672.113 184.62 671.726 185.193 671.446 185.86C671.179 186.513 671.046 187.227 671.046 188C671.046 188.76 671.179 189.473 671.446 190.14C671.726 190.793 672.113 191.367 672.606 191.86C673.113 192.34 673.706 192.713 674.386 192.98C675.066 193.247 675.806 193.38 676.606 193.38C677.353 193.38 678.066 193.267 678.746 193.04C679.439 192.8 680.079 192.407 680.666 191.86L681.806 193.38C681.113 193.967 680.299 194.413 679.366 194.72C678.446 195.013 677.493 195.16 676.506 195.16ZM679.886 193.12V187.92H681.806V193.38L679.886 193.12ZM691.935 195V192.76L691.835 192.34V188.52C691.835 187.707 691.595 187.08 691.115 186.64C690.648 186.187 689.942 185.96 688.995 185.96C688.368 185.96 687.755 186.067 687.155 186.28C686.555 186.48 686.048 186.753 685.635 187.1L684.835 185.66C685.382 185.22 686.035 184.887 686.795 184.66C687.568 184.42 688.375 184.3 689.215 184.3C690.668 184.3 691.788 184.653 692.575 185.36C693.362 186.067 693.755 187.147 693.755 188.6V195H691.935ZM688.455 195.12C687.668 195.12 686.975 194.987 686.375 194.72C685.788 194.453 685.335 194.087 685.015 193.62C684.695 193.14 684.535 192.6 684.535 192C684.535 191.427 684.668 190.907 684.935 190.44C685.215 189.973 685.662 189.6 686.275 189.32C686.902 189.04 687.742 188.9 688.795 188.9H692.155V190.28H688.875C687.915 190.28 687.268 190.44 686.935 190.76C686.602 191.08 686.435 191.467 686.435 191.92C686.435 192.44 686.642 192.86 687.055 193.18C687.468 193.487 688.042 193.64 688.775 193.64C689.495 193.64 690.122 193.48 690.655 193.16C691.202 192.84 691.595 192.373 691.835 191.76L692.215 193.08C691.962 193.707 691.515 194.207 690.875 194.58C690.235 194.94 689.428 195.12 688.455 195.12ZM700.948 195.12C699.882 195.12 699.055 194.833 698.468 194.26C697.882 193.687 697.588 192.867 697.588 191.8V182.08H699.508V191.72C699.508 192.293 699.648 192.733 699.928 193.04C700.222 193.347 700.635 193.5 701.168 193.5C701.768 193.5 702.268 193.333 702.668 193L703.268 194.38C702.975 194.633 702.622 194.82 702.208 194.94C701.808 195.06 701.388 195.12 700.948 195.12ZM695.788 185.98V184.4H702.548V185.98H695.788ZM711.25 184.3C712.116 184.3 712.876 184.467 713.53 184.8C714.196 185.133 714.716 185.64 715.09 186.32C715.463 187 715.65 187.86 715.65 188.9V195H713.73V189.12C713.73 188.093 713.476 187.32 712.97 186.8C712.476 186.28 711.776 186.02 710.87 186.02C710.19 186.02 709.596 186.153 709.09 186.42C708.583 186.687 708.19 187.08 707.91 187.6C707.643 188.12 707.51 188.767 707.51 189.54V195H705.59V180.16H707.51V187.26L707.13 186.5C707.476 185.807 708.01 185.267 708.73 184.88C709.45 184.493 710.29 184.3 711.25 184.3ZM723.923 195.12C722.789 195.12 721.789 194.887 720.923 194.42C720.069 193.953 719.403 193.313 718.923 192.5C718.456 191.687 718.223 190.753 718.223 189.7C718.223 188.647 718.449 187.713 718.903 186.9C719.369 186.087 720.003 185.453 720.803 185C721.616 184.533 722.529 184.3 723.543 184.3C724.569 184.3 725.476 184.527 726.263 184.98C727.049 185.433 727.663 186.073 728.103 186.9C728.556 187.713 728.783 188.667 728.783 189.76C728.783 189.84 728.776 189.933 728.763 190.04C728.763 190.147 728.756 190.247 728.743 190.34H719.723V188.96H727.743L726.963 189.44C726.976 188.76 726.836 188.153 726.543 187.62C726.249 187.087 725.843 186.673 725.323 186.38C724.816 186.073 724.223 185.92 723.543 185.92C722.876 185.92 722.283 186.073 721.763 186.38C721.243 186.673 720.836 187.093 720.543 187.64C720.249 188.173 720.103 188.787 720.103 189.48V189.8C720.103 190.507 720.263 191.14 720.583 191.7C720.916 192.247 721.376 192.673 721.963 192.98C722.549 193.287 723.223 193.44 723.983 193.44C724.609 193.44 725.176 193.333 725.683 193.12C726.203 192.907 726.656 192.587 727.043 192.16L728.103 193.4C727.623 193.96 727.023 194.387 726.303 194.68C725.596 194.973 724.803 195.12 723.923 195.12ZM731.449 195V184.4H733.289V187.28L733.109 186.56C733.402 185.827 733.896 185.267 734.589 184.88C735.282 184.493 736.136 184.3 737.149 184.3V186.16C737.069 186.147 736.989 186.14 736.909 186.14C736.842 186.14 736.776 186.14 736.709 186.14C735.682 186.14 734.869 186.447 734.269 187.06C733.669 187.673 733.369 188.56 733.369 189.72V195H731.449ZM745.303 195V181H751.203C752.696 181 754.01 181.293 755.143 181.88C756.29 182.467 757.176 183.287 757.803 184.34C758.443 185.393 758.763 186.613 758.763 188C758.763 189.387 758.443 190.607 757.803 191.66C757.176 192.713 756.29 193.533 755.143 194.12C754.01 194.707 752.696 195 751.203 195H745.303ZM747.303 193.26H751.083C752.243 193.26 753.243 193.04 754.083 192.6C754.936 192.16 755.596 191.547 756.063 190.76C756.53 189.96 756.763 189.04 756.763 188C756.763 186.947 756.53 186.027 756.063 185.24C755.596 184.453 754.936 183.84 754.083 183.4C753.243 182.96 752.243 182.74 751.083 182.74H747.303V193.26ZM768.127 195V192.76L768.027 192.34V188.52C768.027 187.707 767.787 187.08 767.307 186.64C766.84 186.187 766.133 185.96 765.187 185.96C764.56 185.96 763.947 186.067 763.347 186.28C762.747 186.48 762.24 186.753 761.827 187.1L761.027 185.66C761.573 185.22 762.227 184.887 762.987 184.66C763.76 184.42 764.567 184.3 765.407 184.3C766.86 184.3 767.98 184.653 768.767 185.36C769.553 186.067 769.947 187.147 769.947 188.6V195H768.127ZM764.647 195.12C763.86 195.12 763.167 194.987 762.567 194.72C761.98 194.453 761.527 194.087 761.207 193.62C760.887 193.14 760.727 192.6 760.727 192C760.727 191.427 760.86 190.907 761.127 190.44C761.407 189.973 761.853 189.6 762.467 189.32C763.093 189.04 763.933 188.9 764.987 188.9H768.347V190.28H765.067C764.107 190.28 763.46 190.44 763.127 190.76C762.793 191.08 762.627 191.467 762.627 191.92C762.627 192.44 762.833 192.86 763.247 193.18C763.66 193.487 764.233 193.64 764.967 193.64C765.687 193.64 766.313 193.48 766.847 193.16C767.393 192.84 767.787 192.373 768.027 191.76L768.407 193.08C768.153 193.707 767.707 194.207 767.067 194.58C766.427 194.94 765.62 195.12 764.647 195.12ZM777.14 195.12C776.073 195.12 775.246 194.833 774.66 194.26C774.073 193.687 773.78 192.867 773.78 191.8V182.08H775.7V191.72C775.7 192.293 775.84 192.733 776.12 193.04C776.413 193.347 776.826 193.5 777.36 193.5C777.96 193.5 778.46 193.333 778.86 193L779.46 194.38C779.166 194.633 778.813 194.82 778.4 194.94C778 195.06 777.58 195.12 777.14 195.12ZM771.98 185.98V184.4H778.74V185.98H771.98ZM788.361 195V192.76L788.261 192.34V188.52C788.261 187.707 788.021 187.08 787.541 186.64C787.074 186.187 786.368 185.96 785.421 185.96C784.794 185.96 784.181 186.067 783.581 186.28C782.981 186.48 782.474 186.753 782.061 187.1L781.261 185.66C781.808 185.22 782.461 184.887 783.221 184.66C783.994 184.42 784.801 184.3 785.641 184.3C787.094 184.3 788.214 184.653 789.001 185.36C789.788 186.067 790.181 187.147 790.181 188.6V195H788.361ZM784.881 195.12C784.094 195.12 783.401 194.987 782.801 194.72C782.214 194.453 781.761 194.087 781.441 193.62C781.121 193.14 780.961 192.6 780.961 192C780.961 191.427 781.094 190.907 781.361 190.44C781.641 189.973 782.088 189.6 782.701 189.32C783.328 189.04 784.168 188.9 785.221 188.9H788.581V190.28H785.301C784.341 190.28 783.694 190.44 783.361 190.76C783.028 191.08 782.861 191.467 782.861 191.92C782.861 192.44 783.068 192.86 783.481 193.18C783.894 193.487 784.468 193.64 785.201 193.64C785.921 193.64 786.548 193.48 787.081 193.16C787.628 192.84 788.021 192.373 788.261 191.76L788.641 193.08C788.388 193.707 787.941 194.207 787.301 194.58C786.661 194.94 785.854 195.12 784.881 195.12Z" fill="black"/>
</g>
<g filter="url(#filter6_d_947_1086)">
<path d="M890 0H921.283C968.153 0 1008.73 32.5532 1018.9 78.3069L1021.68 90.807C1024.85 105.095 1024.85 119.905 1021.68 134.193L1018.9 146.693C1008.73 192.447 968.153 225 921.283 225H915L890 187.5L915 150C952.618 141.265 951.818 87.4299 913.957 79.817L890 75L915 37.5L890 0Z" fill="white"/>
</g>
<g filter="url(#filter7_d_947_1086)">
<path d="M190 150H158.717C111.847 150 71.266 182.553 61.0984 228.307L58.3207 240.807C55.1456 255.095 55.1456 269.905 58.3207 284.193L61.0985 296.693C71.266 342.447 111.847 375 158.717 375H165L190 337.5L165 300C127.382 291.265 128.182 237.43 166.043 229.817L190 225L165 187.5L190 150Z" fill="white"/>
</g>
<defs>
<filter id="filter0_d_947_1086" x="187" y="0" width="356" height="81" filterUnits="userSpaceOnUse" color-interpolation-filters="sRGB">
<feFlood flood-opacity="0" result="BackgroundImageFix"/>
<feColorMatrix in="SourceAlpha" type="matrix" values="0 0 0 0 0 0 0 0 0 0 0 0 0 0 0 0 0 0 127 0" result="hardAlpha"/>
<feOffset dy="3"/>
<feGaussianBlur stdDeviation="1.5"/>
<feComposite in2="hardAlpha" operator="out"/>
<feColorMatrix type="matrix" values="0 0 0 0 0 0 0 0 0 0 0 0 0 0 0 0 0 0 0.25 0"/>
<feBlend mode="normal" in2="BackgroundImageFix" result="effect1_dropShadow_947_1086"/>
<feBlend mode="normal" in="SourceGraphic" in2="effect1_dropShadow_947_1086" result="shape"/>
</filter>
<filter id="filter1_d_947_1086" x="537" y="0" width="356" height="81" filterUnits="userSpaceOnUse" color-interpolation-filters="sRGB">
<feFlood flood-opacity="0" result="BackgroundImageFix"/>
<feColorMatrix in="SourceAlpha" type="matrix" values="0 0 0 0 0 0 0 0 0 0 0 0 0 0 0 0 0 0 127 0" result="hardAlpha"/>
<feOffset dy="3"/>
<feGaussianBlur stdDeviation="1.5"/>
<feComposite in2="hardAlpha" operator="out"/>
<feColorMatrix type="matrix" values="0 0 0 0 0 0 0 0 0 0 0 0 0 0 0 0 0 0 0.25 0"/>
<feBlend mode="normal" in2="BackgroundImageFix" result="effect1_dropShadow_947_1086"/>
<feBlend mode="normal" in="SourceGraphic" in2="effect1_dropShadow_947_1086" result="shape"/>
</filter>
<filter id="filter2_d_947_1086" x="187" y="300" width="356" height="81" filterUnits="userSpaceOnUse" color-interpolation-filters="sRGB">
<feFlood flood-opacity="0" result="BackgroundImageFix"/>
<feColorMatrix in="SourceAlpha" type="matrix" values="0 0 0 0 0 0 0 0 0 0 0 0 0 0 0 0 0 0 127 0" result="hardAlpha"/>
<feOffset dy="3"/>
<feGaussianBlur stdDeviation="1.5"/>
<feComposite in2="hardAlpha" operator="out"/>
<feColorMatrix type="matrix" values="0 0 0 0 0 0 0 0 0 0 0 0 0 0 0 0 0 0 0.25 0"/>
<feBlend mode="normal" in2="BackgroundImageFix" result="effect1_dropShadow_947_1086"/>
<feBlend mode="normal" in="SourceGraphic" in2="effect1_dropShadow_947_1086" result="shape"/>
</filter>
<filter id="filter3_d_947_1086" x="537" y="300" width="356" height="81" filterUnits="userSpaceOnUse" color-interpolation-filters="sRGB">
<feFlood flood-opacity="0" result="BackgroundImageFix"/>
<feColorMatrix in="SourceAlpha" type="matrix" values="0 0 0 0 0 0 0 0 0 0 0 0 0 0 0 0 0 0 127 0" result="hardAlpha"/>
<feOffset dy="3"/>
<feGaussianBlur stdDeviation="1.5"/>
<feComposite in2="hardAlpha" operator="out"/>
<feColorMatrix type="matrix" values="0 0 0 0 0 0 0 0 0 0 0 0 0 0 0 0 0 0 0.25 0"/>
<feBlend mode="normal" in2="BackgroundImageFix" result="effect1_dropShadow_947_1086"/>
<feBlend mode="normal" in="SourceGraphic" in2="effect1_dropShadow_947_1086" result="shape"/>
</filter>
<filter id="filter4_d_947_1086" x="187" y="150" width="356" height="81" filterUnits="userSpaceOnUse" color-interpolation-filters="sRGB">
<feFlood flood-opacity="0" result="BackgroundImageFix"/>
<feColorMatrix in="SourceAlpha" type="matrix" values="0 0 0 0 0 0 0 0 0 0 0 0 0 0 0 0 0 0 127 0" result="hardAlpha"/>
<feOffset dy="3"/>
<feGaussianBlur stdDeviation="1.5"/>
<feComposite in2="hardAlpha" operator="out"/>
<feColorMatrix type="matrix" values="0 0 0 0 0 0 0 0 0 0 0 0 0 0 0 0 0 0 0.25 0"/>
<feBlend mode="normal" in2="BackgroundImageFix" result="effect1_dropShadow_947_1086"/>
<feBlend mode="normal" in="SourceGraphic" in2="effect1_dropShadow_947_1086" result="shape"/>
</filter>
<filter id="filter5_d_947_1086" x="537" y="150" width="356" height="81" filterUnits="userSpaceOnUse" color-interpolation-filters="sRGB">
<feFlood flood-opacity="0" result="BackgroundImageFix"/>
<feColorMatrix in="SourceAlpha" type="matrix" values="0 0 0 0 0 0 0 0 0 0 0 0 0 0 0 0 0 0 127 0" result="hardAlpha"/>
<feOffset dy="3"/>
<feGaussianBlur stdDeviation="1.5"/>
<feComposite in2="hardAlpha" operator="out"/>
<feColorMatrix type="matrix" values="0 0 0 0 0 0 0 0 0 0 0 0 0 0 0 0 0 0 0.25 0"/>
<feBlend mode="normal" in2="BackgroundImageFix" result="effect1_dropShadow_947_1086"/>
<feBlend mode="normal" in="SourceGraphic" in2="effect1_dropShadow_947_1086" result="shape"/>
</filter>
<filter id="filter6_d_947_1086" x="887" y="0" width="140.061" height="231" filterUnits="userSpaceOnUse" color-interpolation-filters="sRGB">
<feFlood flood-opacity="0" result="BackgroundImageFix"/>
<feColorMatrix in="SourceAlpha" type="matrix" values="0 0 0 0 0 0 0 0 0 0 0 0 0 0 0 0 0 0 127 0" result="hardAlpha"/>
<feOffset dy="3"/>
<feGaussianBlur stdDeviation="1.5"/>
<feComposite in2="hardAlpha" operator="out"/>
<feColorMatrix type="matrix" values="0 0 0 0 0 0 0 0 0 0 0 0 0 0 0 0 0 0 0.25 0"/>
<feBlend mode="normal" in2="BackgroundImageFix" result="effect1_dropShadow_947_1086"/>
<feBlend mode="normal" in="SourceGraphic" in2="effect1_dropShadow_947_1086" result="shape"/>
</filter>
<filter id="filter7_d_947_1086" x="52.9395" y="150" width="140.061" height="231" filterUnits="userSpaceOnUse" color-interpolation-filters="sRGB">
<feFlood flood-opacity="0" result="BackgroundImageFix"/>
<feColorMatrix in="SourceAlpha" type="matrix" values="0 0 0 0 0 0 0 0 0 0 0 0 0 0 0 0 0 0 127 0" result="hardAlpha"/>
<feOffset dy="3"/>
<feGaussianBlur stdDeviation="1.5"/>
<feComposite in2="hardAlpha" operator="out"/>
<feColorMatrix type="matrix" values="0 0 0 0 0 0 0 0 0 0 0 0 0 0 0 0 0 0 0.25 0"/>
<feBlend mode="normal" in2="BackgroundImageFix" result="effect1_dropShadow_947_1086"/>
<feBlend mode="normal" in="SourceGraphic" in2="effect1_dropShadow_947_1086" result="shape"/>
</filter>
</defs>
</svg>
